<svg width="60" height="60" viewBox="0 0 60 60" fill="none" xmlns="http://www.w3.org/2000/svg">
<g clip-path="url(#clip0_1_275)">
<path d="M47.0669 0.748047C40.1593 0.748047 34.732 6.17543 34.732 13.083C34.732 14.8099 35.2254 16.5368 35.7188 18.017H19.6833C17.7097 16.5368 15.2427 15.55 12.529 15.55C5.62147 15.55 0.194092 20.9774 0.194092 27.8849C0.194092 33.8057 5.12807 38.7397 10.0621 39.9732V52.5548H14.996V39.9732C19.93 39.2331 22.1503 36.5194 23.6305 32.8189H24.864C31.7716 32.8189 37.1989 38.2463 37.1989 45.1539C37.1989 52.0614 31.7716 57.4888 24.864 57.4888H0.194092V59.9558H24.864C33.0051 59.9558 39.6659 53.2949 39.6659 45.1539C39.6659 37.0128 33.0051 30.3519 24.864 30.3519H24.6173C24.864 29.6118 24.864 28.625 24.864 27.8849C24.864 25.1712 23.8772 22.4576 22.397 20.484H37.1989C38.9258 22.951 42.1329 24.6779 44.5999 25.1712V37.7529H49.5339V25.1712C54.4679 23.9378 59.4019 19.0038 59.4019 13.083C59.4019 6.17543 53.7278 0.748047 47.0669 0.748047ZM12.529 35.2859C8.33516 35.2859 5.12807 32.0788 5.12807 27.8849C5.12807 23.6911 8.33516 20.484 12.529 20.484C16.7229 20.484 19.93 23.6911 19.93 27.8849C19.93 32.0788 16.4762 35.2859 12.529 35.2859ZM47.0669 20.484C42.873 20.484 39.6659 17.2769 39.6659 13.083C39.6659 8.88911 42.873 5.68203 47.0669 5.68203C51.2608 5.68203 54.4679 8.88911 54.4679 13.083C54.4679 17.2769 51.0141 20.484 47.0669 20.484Z" fill="black"/>
</g>
<defs>
<clipPath id="clip0_1_275">
<rect width="59.2078" height="59.2078" fill="white" transform="translate(0.194092 0.748047)"/>
</clipPath>
</defs>
</svg>
