<svg width="62" height="62" viewBox="0 0 62 62" fill="none" xmlns="http://www.w3.org/2000/svg">
<g clip-path="url(#clip0_1_284)">
<path d="M31.2442 0.714844L29.5408 1.93328L27.7959 3.063L25.986 4.11583L24.1406 5.08585L22.2479 5.96715L20.3138 6.75973L18.3501 7.4695L16.3568 8.08463L14.3398 8.60513L12.2933 9.03691L10.2291 9.36814L8.15892 9.60473L6.07692 9.7526L3.98901 9.79992L4.03633 12.3255L4.19012 14.8452L4.44445 17.359L4.80525 19.8609L5.2666 22.3451L5.82259 24.8057L6.47913 27.2425L7.23622 29.6498L8.08794 32.0276L9.04022 34.3698L10.0871 36.6707L11.2228 38.9242L12.4471 41.1363L13.7602 43.2893L15.162 45.389L16.6525 47.4355L18.2199 49.417L19.8642 51.3274L21.5854 53.1728L23.3835 54.9532L25.2526 56.6507L27.1867 58.2773L29.1859 59.821L31.2442 61.282L33.3026 59.821L35.3018 58.2773L37.2359 56.6507L39.1049 54.9532L40.903 53.1728L42.6242 51.3274L44.2685 49.417L45.8359 47.4355L47.3205 45.389L48.7223 43.2893L50.0413 41.1363L51.2657 38.9242L52.4013 36.6707L53.4482 34.3698L54.3946 32.0276L55.2463 29.6498L56.0034 27.2425L56.6659 24.8057L57.2278 22.3451L57.6832 19.8609L58.044 17.359L58.2983 14.8452L58.4521 12.3255L58.4994 9.79992L56.4115 9.7526L54.3295 9.60473L52.2594 9.36814L50.1951 9.03691L48.1486 8.60513L46.1317 8.08463L44.1384 7.4695L42.1688 6.75973L40.2406 5.96715L38.3479 5.08585L36.4965 4.11583L34.6925 3.063L32.9418 1.93328L31.2442 0.714844ZM31.2442 4.43523L33.0541 5.60635L34.9114 6.69467L36.81 7.70609L38.7619 8.62879L40.7433 9.45686L42.7662 10.2021L44.8186 10.8587L46.9006 11.4146L49.0003 11.8878L51.1178 12.2605L53.253 12.5444L55.4001 12.7336L55.2345 15.1173L54.9683 17.495L54.6134 19.8668L54.158 22.215L53.6079 24.5454L52.9632 26.8522L52.2298 29.1234L51.4076 31.371L50.4849 33.5832L49.4853 35.7539L48.3911 37.8832L47.2141 39.9652L45.9483 41.9999L44.6116 43.9872L43.192 45.9095L41.6956 47.7786L40.1223 49.5826L38.478 51.3215L36.7686 52.9954L34.9883 54.5924L33.1429 56.1243L31.2442 57.5793L29.3456 56.1243L27.5002 54.5924L25.7258 52.9954L24.0105 51.3215L22.3662 49.5826L20.7928 47.7786L19.3023 45.9095L17.8769 43.9872L16.5401 41.9999L15.2744 39.9652L14.0973 37.8832L13.009 35.7539L11.9976 33.5832L11.0867 31.371L10.2587 29.1234L9.52523 26.8522L8.88052 24.5454L8.33045 22.215L7.87501 19.8668L7.52013 17.495L7.25396 15.1173L7.08835 12.7336L9.22949 12.5444L11.3647 12.2605L13.4881 11.8878L15.5938 11.4146L17.6699 10.8587L19.7223 10.2021L21.7451 9.45686L23.7266 8.62879L25.6784 7.70609L27.583 6.69467L29.4343 5.60635L31.2442 4.43523ZM43.3813 20.3873C42.9884 20.3982 42.615 20.5616 42.3403 20.8428L28.2691 34.914L23.283 29.9278C21.8558 28.4415 19.6555 30.6419 21.1418 32.069L27.1985 38.1257C27.7899 38.7168 28.7483 38.7168 29.3397 38.1257L44.4815 22.9839C45.4665 22.0209 44.7584 20.3496 43.3813 20.3873Z" fill="black"/>
</g>
<defs>
<clipPath id="clip0_1_284">
<rect width="60.5671" height="60.5671" fill="white" transform="translate(0.960693 0.714844)"/>
</clipPath>
</defs>
</svg>
