<svg width="77" height="78" viewBox="0 0 77 78" fill="none" xmlns="http://www.w3.org/2000/svg">
<path d="M14.9601 33.8028H62.0675C62.8699 33.8028 63.5201 33.1519 63.5201 32.3502C63.5201 31.5476 62.87 30.8975 62.0675 30.8975H14.9601C14.1585 30.8975 13.5074 31.5475 13.5074 32.3502C13.5074 33.1519 14.1584 33.8028 14.9601 33.8028Z" fill="black"/>
<path d="M52.6921 41.4647C51.9074 41.2872 51.1325 41.7833 50.9583 42.5663C48.9391 51.6183 39.489 52.112 39.0879 52.1281C38.2879 52.159 37.6637 52.8317 37.6927 53.6327C37.7211 54.4166 38.3656 55.0327 39.1438 55.0327C39.1617 55.0327 39.1794 55.0318 39.1973 55.0318C39.3173 55.0269 51.2809 54.4644 53.7939 43.1986C53.968 42.4157 53.4751 41.6391 52.6921 41.4647Z" fill="black"/>
<path d="M64.9764 40.8261C64.7041 40.5504 64.3328 40.3956 63.9436 40.3956H60.8566C60.9327 39.6442 60.9716 38.883 60.9716 38.1122L60.9635 37.7336C60.9505 36.9416 60.3045 36.3062 59.5117 36.3062H17.5168C16.7224 36.3062 16.0747 36.944 16.0642 37.7385L16.0609 37.8626C16.0576 37.9452 16.0553 38.028 16.0553 38.1123C16.0553 38.8831 16.0942 39.6443 16.1704 40.3957H13.1736C12.7861 40.3957 12.414 40.5505 12.1409 40.8269C11.8677 41.1026 11.7169 41.4763 11.721 41.8645L11.7339 43.1672C11.7412 43.9656 12.3897 44.6076 13.1865 44.6076C13.1905 44.6076 13.1946 44.6076 13.1987 44.6076C13.9477 44.6011 14.5597 44.0296 14.6318 43.3009H16.6665C18.1247 49.4396 22.1073 54.6072 27.4548 57.647L18.3485 72.9511C17.9383 73.6401 18.1644 74.5319 18.8542 74.942C19.0869 75.0805 19.343 75.147 19.5959 75.147C20.0912 75.147 20.5734 74.8933 20.845 74.437L30.0778 58.9205C32.6848 59.9816 35.5308 60.5709 38.5138 60.5709C41.5008 60.5709 44.3518 59.9791 46.9611 58.9156L56.1979 74.437C56.4694 74.8934 56.9517 75.147 57.447 75.147C57.7 75.147 57.9562 75.0806 58.1887 74.942C58.8785 74.5319 59.1047 73.6401 58.6945 72.9511L49.5833 57.6404C54.9252 54.6007 58.9028 49.4355 60.3603 43.3008H62.4856C62.5586 44.0295 63.1698 44.601 63.9191 44.6075C63.9223 44.6075 63.9272 44.6075 63.9321 44.6075C64.7281 44.6075 65.3767 43.9656 65.3831 43.1671L65.3961 41.8628C65.4011 41.4754 65.2488 41.1016 64.9764 40.8261ZM38.5139 57.6655C28.1001 57.6655 19.562 49.4842 18.9906 39.2114H58.0365C57.465 49.4841 48.9269 57.6655 38.5139 57.6655Z" fill="black"/>
<path d="M36.6608 15.2383L38.0502 15.9168C38.3338 16.0611 40.8021 17.3889 39.9801 19.7299C39.1064 22.2176 35.7877 22.0823 35.6532 22.0766C34.8378 22.0312 34.165 22.6408 34.1179 23.4417C34.0709 24.2418 34.6821 24.93 35.483 24.977C35.5106 24.9786 35.6135 24.9834 35.7765 24.9834C36.9616 24.9834 41.3129 24.7038 42.7217 20.6921C44.0762 16.8344 41.1006 14.1789 39.3358 13.3116L37.9708 12.6453C37.6863 12.4945 35.2123 11.1076 36.0156 8.82007C36.909 6.27714 40.1781 6.46288 40.324 6.47247C41.1127 6.526 41.8155 5.93263 41.8763 5.1351C41.9379 4.33497 41.3388 3.63712 40.5389 3.57543C38.5991 3.42385 34.5833 4.13072 33.2751 7.85705C31.9488 11.6328 34.8921 14.3273 36.6608 15.2383Z" fill="black"/>
<path d="M24.5447 17.6383L25.5799 18.1434C25.8798 18.2967 27.3502 19.1348 26.8501 20.5598C26.2859 22.1648 24.0543 22.0822 23.9684 22.0773C23.1741 22.027 22.4801 22.6406 22.4331 23.4424C22.3861 24.2433 22.9972 24.9307 23.7982 24.9777C23.9052 24.9833 24.0171 24.9874 24.1338 24.9866C25.8515 24.9866 28.6261 24.27 29.5916 21.5221C30.6899 18.3892 28.293 16.2395 26.8672 15.539L25.8475 15.0413C25.7737 15.004 24.0438 14.0929 24.5619 12.6184C25.1358 10.9858 27.3098 11.092 27.425 11.0985C28.2161 11.1512 28.9157 10.5578 28.9772 9.76107C29.0381 8.96094 28.439 8.26223 27.6398 8.2014C25.9682 8.07736 22.8734 8.65778 21.8205 11.6555C20.7438 14.7226 23.1132 16.9007 24.5447 17.6383Z" fill="black"/>
<path d="M49.2218 17.717C49.8435 18.0656 50.4305 18.3947 50.8122 18.8487C51.3035 19.4314 51.4121 20.02 51.1348 20.5963C50.7814 21.3332 49.7138 22.1073 48.2547 22.0749C47.474 22.0529 46.7866 22.6901 46.7673 23.4926C46.7478 24.2942 47.3825 24.9598 48.1849 24.9792C48.2377 24.9809 48.2911 24.9816 48.3447 24.9816C50.6889 24.9816 52.8491 23.7382 53.7538 21.8542C54.5238 20.2501 54.2548 18.427 53.0348 16.9777C52.3126 16.1201 51.4258 15.6224 50.6443 15.183C49.6634 14.6326 49.0969 14.2873 48.8553 13.5886C48.5935 12.8307 47.7651 12.4286 47.008 12.6912C46.2493 12.9538 45.848 13.7814 46.1099 14.5394C46.7244 16.3147 48.1098 17.0921 49.2218 17.717Z" fill="black"/>
<path d="M49.4343 11.5458C49.662 11.5458 49.893 11.4922 50.1086 11.3788C50.5877 11.1276 50.9679 11.0651 51.8012 11.1009C52.5907 11.1252 53.2815 10.5139 53.3154 9.71229C53.3502 8.91063 52.7286 8.23293 51.9268 8.1981C50.8131 8.15109 49.8468 8.23542 48.7582 8.80683C48.0473 9.17974 47.7741 10.0584 48.1471 10.7685C48.4072 11.2629 48.9123 11.5458 49.4343 11.5458Z" fill="black"/>
</svg>
