<svg width="68" height="69" viewBox="0 0 68 69" fill="none" xmlns="http://www.w3.org/2000/svg">
<path d="M32.6201 68.29H6.17668C2.86404 68.29 0.166809 65.5952 0.166809 62.2802V15.4031C0.166809 14.7397 0.705294 14.2012 1.36878 14.2012C2.03227 14.2012 2.57076 14.7397 2.57076 15.4031V62.2802C2.57076 64.2682 4.18862 65.8861 6.17668 65.8861H32.6201C33.2836 65.8861 33.8221 66.4246 33.8221 67.0881C33.8221 67.7516 33.2836 68.29 32.6201 68.29Z" fill="black" fill-opacity="0.5"/>
<path d="M61.4675 68.2911H47.0438C46.3803 68.2911 45.8419 67.7526 45.8419 67.0891V43.0496C45.8419 42.3861 46.3803 41.8476 47.0438 41.8476H54.3975L55.299 34.6358H47.0438C46.3803 34.6358 45.8419 34.0973 45.8419 33.4338V23.818C45.8419 21.8299 47.4597 20.2121 49.4478 20.2121H55.4577V13.0002H47.0438C42.4042 13.0002 38.63 16.7744 38.63 21.414V33.4338C38.63 34.0973 38.0915 34.6358 37.428 34.6358H29.0142V41.8476H37.428C38.0915 41.8476 38.63 42.3861 38.63 43.0496V67.0891C38.63 67.7526 38.0915 68.2911 37.428 68.2911C36.7645 68.2911 36.2261 67.7526 36.2261 67.0891V44.2516H27.8122C27.1487 44.2516 26.6103 43.7131 26.6103 43.0496V33.4338C26.6103 32.7703 27.1487 32.2318 27.8122 32.2318H36.2261V21.414C36.2261 15.4498 41.0796 10.5963 47.0438 10.5963H56.6596C57.3231 10.5963 57.8616 11.1348 57.8616 11.7982V21.414C57.8616 22.0775 57.3231 22.616 56.6596 22.616H49.4478C48.7843 22.616 48.2458 23.1569 48.2458 23.818V32.2318H56.6596C57.0058 32.2318 57.3327 32.3809 57.5611 32.6381C57.7895 32.8953 57.8953 33.2415 57.852 33.5852L56.65 43.201C56.5755 43.802 56.0634 44.2516 55.4577 44.2516H48.2458V65.8871H61.4675C63.4556 65.8871 65.0735 64.2693 65.0735 62.2812V6.99034C65.0735 5.00228 63.4556 3.38442 61.4675 3.38442H6.17668C4.18862 3.38442 2.57076 5.00228 2.57076 6.99034V9.39429C2.57076 10.0578 2.03227 10.5963 1.36878 10.5963C0.705294 10.5963 0.166809 10.0578 0.166809 9.39429V6.99034C0.166809 3.6753 2.86404 0.980469 6.17668 0.980469H61.4675C64.7802 0.980469 67.4774 3.6753 67.4774 6.99034V62.2812C67.4774 65.5962 64.7802 68.2911 61.4675 68.2911Z" fill="black" fill-opacity="0.5"/>
</svg>
