<svg xmlns="http://www.w3.org/2000/svg" aria-hidden="true" style="position:absolute;width:0;height:0;overflow:hidden">
  <defs>
    <symbol id="icon-facebook" viewBox="0 0 32 32">
      <path d="M15.128 31.671H2.864a2.79 2.79 0 0 1-2.787-2.787V7.144a.557.557 0 0 1 1.114 0v21.74c0 .922.75 1.672 1.672 1.672h12.264a.557.557 0 0 1 0 1.114zM28.507 31.671h-6.689a.557.557 0 0 1-.557-.557V19.965c0-.308.25-.557.557-.557h3.41l.418-3.345h-3.829a.557.557 0 0 1-.557-.557v-4.46c0-.922.75-1.672 1.672-1.672h2.787V6.029h-3.902a3.906 3.906 0 0 0-3.902 3.902v5.574c0 .308-.25.557-.557.557h-3.902v3.345h3.902c.308 0 .557.25.557.557v11.149a.557.557 0 0 1-1.114 0V20.522h-3.902a.557.557 0 0 1-.557-.557v-4.46c0-.308.25-.557.557-.557h3.902V9.931a5.023 5.023 0 0 1 5.017-5.017h4.459c.308 0 .557.25.557.557v4.46c0 .308-.25.557-.557.557h-3.345a.558.558 0 0 0-.557.557v3.902h3.902a.559.559 0 0 1 .553.627l-.557 4.46a.556.556 0 0 1-.553.487h-3.345v10.034h6.132c.922 0 1.672-.75 1.672-1.672V3.241c0-.922-.75-1.672-1.672-1.672H2.865c-.922 0-1.672.75-1.672 1.672v1.115a.557.557 0 0 1-1.114 0V3.241A2.79 2.79 0 0 1 2.866.454h25.642a2.79 2.79 0 0 1 2.787 2.787v25.642a2.79 2.79 0 0 1-2.787 2.787z"/>
    </symbol>
    <symbol id="icon-arrow-left" viewBox="0 0 34 32">
      <path d="M14.387 1.441 2.097 15.555l31.55.578-.021 1.12-31.518-.577 12.053 14.255-.856.724L.612 16.641l.021-1.113h.002L13.542.705l.846.736z"/>
    </symbol>
    <symbol id="icon-arrow-right" viewBox="0 0 34 32">
      <path d="m19.448 1.478 12.29 14.113-31.551.578.021 1.121 31.519-.577-12.053 14.255.856.724 12.694-15.013-.02-1.114h-.001L20.295.742l-.845.736z"/>
    </symbol>
    <symbol id="icon-about-icon-1" viewBox="0 0 32 32">
      <path d="M26.466 24.785c-.924 0-1.584-.528-1.584-.528-.924-1.056-2.244-1.584-3.696-1.584s-2.772.528-3.696 1.584c0 0-.66.528-1.584.528s-1.584-.528-1.584-.528c-.924-1.056-2.244-1.584-3.696-1.584-1.716 0-3.696 1.584-3.696 1.584-.396.264-.924.528-1.584.528-.924 0-1.584-.528-1.584-.528-.924-1.056-2.244-1.584-3.696-1.584v2.64c.528 0 1.188.264 1.584.528 0 0 2.244 1.584 3.696 1.584s2.64-.66 3.696-1.584c0 0 .924-.528 1.584-.528s1.188.264 1.584.528c0 0 2.244 1.584 3.696 1.584 1.98 0 3.696-1.584 3.696-1.584.396-.264.924-.528 1.584-.528s1.188.264 1.584.528c0 0 2.244 1.584 3.696 1.584s2.64-.66 3.696-1.584c0 0 .924-.528 1.584-.528v-2.64c-1.716 0-3.696 1.584-3.696 1.584-.396.264-1.056.528-1.584.528zM26.466 20.826c-1.452 0-3.696-1.584-3.696-1.584-.396-.264-1.056-.528-1.584-.528s-1.188.264-1.584.528c0 0-1.716 1.584-3.696 1.584-1.452 0-3.696-1.584-3.696-1.584-.396-.264-1.056-.528-1.584-.528s-1.584.528-1.584.528c-1.056.924-2.244 1.584-3.696 1.584S1.65 19.242 1.65 19.242c-.396-.264-1.056-.528-1.584-.528v1.32c.528 0 1.188.264 1.584.528 0 0 2.244 1.584 3.696 1.584s2.64-.66 3.696-1.584c0 0 .924-.528 1.584-.528s1.188.264 1.584.528c0 0 2.244 1.584 3.696 1.584 1.98 0 3.696-1.584 3.696-1.584.396-.264.924-.528 1.584-.528s1.188.264 1.584.528c0 0 2.244 1.584 3.696 1.584s2.64-.66 3.696-1.584c0 0 .924-.528 1.584-.528v-1.32c-.528 0-1.584.528-1.584.528-1.056.924-2.244 1.584-3.696 1.584zM26.466 16.866c-1.452 0-3.696-1.584-3.696-1.584-.396-.264-1.056-.528-1.584-.528s-1.188.264-1.584.528c0 0-1.716 1.584-3.696 1.584-1.452 0-3.696-1.584-3.696-1.584-.396-.264-1.056-.528-1.584-.528s-1.584.528-1.584.528c-1.056.924-2.244 1.584-3.696 1.584S1.65 15.282 1.65 15.282c-.396-.264-1.056-.528-1.584-.528v1.32c.528 0 1.188.264 1.584.528 0 0 2.244 1.584 3.696 1.584s2.64-.66 3.696-1.584c0 0 .924-.528 1.584-.528s1.188.264 1.584.528c0 0 2.244 1.584 3.696 1.584 1.98 0 3.696-1.584 3.696-1.584.396-.264.924-.528 1.584-.528s1.188.264 1.584.528c0 0 2.244 1.584 3.696 1.584s2.64-.66 3.696-1.584c0 0 .924-.528 1.584-.528v-1.32c-.528 0-1.584.528-1.584.528-1.056.924-2.244 1.584-3.696 1.584zM26.466 12.906c-1.452 0-3.696-1.584-3.696-1.584-.396-.264-1.056-.528-1.584-.528s-1.188.264-1.584.528c0 0-1.716 1.584-3.696 1.584-1.452 0-3.696-1.584-3.696-1.584-.396-.264-1.056-.528-1.584-.528s-1.584.528-1.584.528c-1.056.924-2.244 1.584-3.696 1.584S1.65 11.322 1.65 11.322c-.396-.264-1.056-.528-1.584-.528v1.32c.528 0 1.188.264 1.584.528 0 0 2.244 1.584 3.696 1.584s2.64-.66 3.696-1.584c0 0 1.056-.528 1.584-.528s1.188.264 1.584.528c0 0 2.244 1.584 3.696 1.584 1.98 0 3.696-1.584 3.696-1.584.396-.264 1.056-.528 1.584-.528s1.188.264 1.584.528c0 0 2.244 1.584 3.696 1.584s2.64-.66 3.696-1.584c0 0 .924-.528 1.584-.528v-1.32c-.528 0-1.584.528-1.584.528-1.056.924-2.244 1.584-3.696 1.584zM28.05 7.099c-.396.264-.924.528-1.584.528-.924 0-1.584-.528-1.584-.528-.924-1.056-2.244-1.584-3.696-1.584s-2.772.528-3.696 1.584c0 0-.66.528-1.584.528s-1.584-.528-1.584-.528c-.924-1.056-2.244-1.584-3.696-1.584-1.716 0-3.696 1.584-3.696 1.584-.396.264-1.056.528-1.584.528-.924 0-1.584-.528-1.584-.528C2.838 6.043 1.518 5.515.066 5.515v2.64c.528 0 1.188.264 1.584.528 0 0 2.244 1.584 3.696 1.584s2.64-.66 3.696-1.584c0 0 1.056-.528 1.584-.528s1.188.264 1.584.528c0 0 2.244 1.584 3.696 1.584 1.98 0 3.696-1.584 3.696-1.584.396-.264 1.056-.528 1.584-.528s1.188.264 1.584.528c0 0 2.244 1.584 3.696 1.584s2.64-.66 3.696-1.584c0 0 .924-.528 1.584-.528v-2.64c-1.716 0-3.696 1.584-3.696 1.584z"/>
    </symbol>
    <symbol id="icon-about-icon-2" viewBox="0 0 32 32">
      <path d="M6.137 13.868h19.326a.596.596 0 0 0 0-1.192H6.137a.596.596 0 0 0 0 1.192zM21.617 17.011a.594.594 0 0 0-.711.452c-.828 3.714-4.705 3.916-4.87 3.923a.596.596 0 0 0 .023 1.191h.022c.049-.002 4.957-.233 5.988-4.855a.596.596 0 0 0-.452-.711z"/>
      <path d="M26.657 16.749a.596.596 0 0 0-.424-.177h-1.266a9.36 9.36 0 0 0 .047-.937l-.003-.155a.595.595 0 0 0-.596-.586H7.186a.596.596 0 0 0-.596.588l-.001.051a9.36 9.36 0 0 0 .045 1.039H5.405a.598.598 0 0 0-.596.603l.005.534a.596.596 0 0 0 .596.591h.005a.597.597 0 0 0 .588-.536h.835a9.249 9.249 0 0 0 4.426 5.886l-3.736 6.279a.596.596 0 0 0 1.023.61l3.788-6.366a9.173 9.173 0 0 0 6.927-.002l3.789 6.368a.595.595 0 1 0 1.023-.61l-3.738-6.281a9.242 9.242 0 0 0 4.421-5.883h.872c.03.299.281.533.588.536h.005a.594.594 0 0 0 .595-.591l.005-.535a.593.593 0 0 0-.172-.425zm-10.856 6.909c-4.272 0-7.775-3.356-8.01-7.571H23.81c-.234 4.214-3.737 7.571-8.009 7.571zM15.04 6.252l.57.278c.116.059 1.129.604.792 1.564-.358 1.021-1.72.965-1.775.963a.596.596 0 1 0-.07 1.19c.011.001.054.003.12.003.486 0 2.271-.115 2.849-1.761.556-1.583-.665-2.672-1.389-3.028l-.56-.273c-.117-.062-1.132-.631-.802-1.569.367-1.043 1.708-.967 1.768-.963a.597.597 0 0 0 .088-1.189c-.796-.062-2.443.228-2.98 1.757-.544 1.549.663 2.654 1.389 3.028zM10.07 7.236l.425.207c.123.063.726.407.521.991-.231.658-1.147.625-1.182.623a.596.596 0 1 0-.07 1.19c.044.002.09.004.138.004.705 0 1.843-.294 2.239-1.421.451-1.285-.533-2.167-1.118-2.455l-.418-.204c-.03-.015-.74-.389-.527-.994.235-.67 1.127-.626 1.175-.624a.597.597 0 0 0 .088-1.189c-.686-.051-1.955.187-2.387 1.417-.442 1.258.53 2.152 1.118 2.454zM20.194 7.269c.255.143.496.278.652.464.202.239.246.481.132.717-.145.302-.583.62-1.182.607a.595.595 0 1 0-.028 1.192l.066.001c.962 0 1.848-.51 2.219-1.283.316-.658.206-1.406-.295-2.001-.296-.352-.66-.556-.981-.736-.402-.226-.635-.367-.734-.654a.595.595 0 1 0-1.126.39c.252.728.82 1.047 1.277 1.304zM20.281 4.737a.592.592 0 0 0 .277-.069c.197-.103.353-.129.694-.114a.596.596 0 1 0 .051-1.191c-.457-.019-.853.015-1.3.25a.596.596 0 0 0 .277 1.124z"/>
    </symbol>
    <symbol id="icon-about-icon-3" viewBox="0 0 32 32">
      <path d="M25.102.399c-3.684 0-6.579 2.895-6.579 6.579 0 .921.263 1.842.526 2.631h-8.552C9.444 8.82 8.129 8.293 6.681 8.293c-3.684 0-6.579 2.895-6.579 6.579 0 3.158 2.631 5.789 5.263 6.447v6.71h2.631v-6.71c2.631-.395 3.816-1.842 4.605-3.816h.658c3.684 0 6.579 2.895 6.579 6.579s-2.895 6.579-6.579 6.579H.102v1.316h13.157c4.342 0 7.894-3.552 7.894-7.894s-3.552-7.894-7.894-7.894h-.132c.132-.395.132-.921.132-1.316a6.76 6.76 0 0 0-1.316-3.947h7.894c.921 1.316 2.631 2.237 3.947 2.5v6.71h2.631v-6.71c2.631-.658 5.263-3.289 5.263-6.447C31.678 3.295 28.652.4 25.099.4zm-18.42 18.42c-2.237 0-3.947-1.71-3.947-3.947s1.71-3.947 3.947-3.947 3.947 1.71 3.947 3.947-1.842 3.947-3.947 3.947zm18.42-7.894c-2.237 0-3.947-1.71-3.947-3.947s1.71-3.947 3.947-3.947 3.947 1.71 3.947 3.947-1.842 3.947-3.947 3.947z"/>
    </symbol>
    <symbol id="icon-about-icon-4" viewBox="0 0 32 32">
      <path d="m16.126.369-.879.629-.901.583-.934.543-.952.501-.977.455-.998.409-1.014.366-1.029.317-1.041.269-1.056.223-1.065.171-1.068.122-1.075.076-1.078.024.024 1.304.079 1.3.131 1.297.186 1.291.238 1.282.287 1.27.339 1.258.391 1.242.44 1.227.492 1.209.54 1.188.586 1.163.632 1.142.678 1.111.724 1.084.769 1.056.809 1.023.849.986.888.952.928.919.965.876.998.84 1.032.797 1.062.754 1.062-.754 1.032-.797.998-.84.965-.876.928-.919.888-.952.849-.986.809-1.023.766-1.056.724-1.084.681-1.111.632-1.142.586-1.163.54-1.188.488-1.209.44-1.227.391-1.242.342-1.258.29-1.27.235-1.282.186-1.291.131-1.297.079-1.301.024-1.304-1.078-.024-1.075-.076-1.068-.122-1.065-.171-1.056-.223-1.041-.269-1.029-.317-1.017-.366-.995-.409-.977-.455-.956-.501-.931-.543L17 .997l-.876-.629zm0 1.92.934.604.959.562.98.522 1.007.476 1.023.427 1.044.385 1.059.339 1.075.287 1.084.244 1.093.192 1.102.147 1.108.098-.085 1.23-.137 1.227-.183 1.224-.235 1.212-.284 1.203-.333 1.191-.379 1.172-.424 1.16-.476 1.142-.516 1.12-.565 1.099-.607 1.075-.653 1.05-.69 1.026-.733.992-.772.965-.812.931-.849.898-.882.864-.919.824-.952.791-.98.751-.98-.751-.952-.791-.916-.824-.885-.864-.849-.898-.812-.931-.769-.965-.736-.992-.69-1.026-.653-1.05-.608-1.075-.562-1.099-.522-1.12-.47-1.142-.427-1.16-.379-1.172-.333-1.191-.284-1.203-.235-1.212-.183-1.224-.137-1.227-.085-1.23 1.105-.098 1.102-.147 1.096-.192 1.087-.244 1.072-.287 1.059-.339 1.044-.385 1.023-.427 1.007-.476.983-.522.956-.562.934-.604zm6.264 8.233a.783.783 0 0 0-.537.235L14.59 18.02l-2.573-2.574c-.737-.767-1.872.369-1.105 1.105l3.126 3.126c.305.305.8.305 1.105 0l7.815-7.815c.508-.497.143-1.36-.568-1.34z"/>
    </symbol>
    <symbol id="icon-arrow" viewBox="0 0 32 32">
      <path d="M6.556 3.034 27.417 6.32.483 29.775l1.514 1.739L28.935 8.057l.376 21.11 2.305-.041-.41-23.047v-.003h-.002l-1.511-1.735-.005.004L6.916.758l-.359 2.277z"/>
    </symbol>
    <symbol id="icon-logo" viewBox="0 0 164 32">
      <path fill="none" d="M.381.473h162.667V31.14H.381V.473z"/>
      <path d="M98.699 15.168h-.206c-.324.004-.648.013-.972.011-.607-.005-1.215-.021-1.822-.022-.518-.001-1.037.023-1.554.017-.432-.005-.856.049-1.282.099-.227.026-.44.109-.661.153-.369.074-.71.223-1.049.372a5.292 5.292 0 0 0-1.081.647c-.492.374-.945.784-1.283 1.312-.296.462-.52.953-.636 1.488a4.174 4.174 0 0 0 .178 2.437c.204.523.487 1.005.865 1.426.314.351.659.665 1.051.931a6.486 6.486 0 0 0 1.723.827 6.884 6.884 0 0 0 1.818.286c.518.017 1.037.016 1.555.016 5.241.002 10.481.003 15.722.003l4.593-.003a7.789 7.789 0 0 0 1.734-.197c.309-.071.604-.183.898-.298a5.826 5.826 0 0 0 1.57-.911c.557-.454 1.026-.987 1.349-1.637.221-.446.375-.915.439-1.408.075-.576.051-1.148-.133-1.706-.063-.192-.103-.394-.185-.578a4.83 4.83 0 0 0-.789-1.218 5.856 5.856 0 0 0-1.944-1.427 5.823 5.823 0 0 0-1.498-.486c-.431-.072-.864-.135-1.304-.135l-.777-.003-2.333-.005-1.409-.005c-.07 0-.148-.022-.213.066.02.057.043.125.068.191.025.068.057.134.078.204.159.538.267 1.08.263 1.648a4.617 4.617 0 0 1-.313 1.661 5.347 5.347 0 0 1-1.257 1.886c-.756.743-1.661 1.234-2.659 1.558a7.458 7.458 0 0 1-1.93.353c-1.336.07-2.613-.165-3.818-.757a6.02 6.02 0 0 1-2.032-1.587c-.475-.577-.835-1.207-1.026-1.935a4.98 4.98 0 0 1-.167-1.102c-.014-.38-.019-.762.091-1.132.082-.278.122-.571.279-.825.031-.051.034-.12.06-.218zm5.979 14.987H94.349c-.632 0-1.265-.02-1.893-.091a13.714 13.714 0 0 1-2.241-.427 15.046 15.046 0 0 1-2.22-.853c-.387-.182-.752-.412-1.125-.625a8.617 8.617 0 0 1-1.112-.782c-.606-.488-1.175-1.021-1.654-1.636-.518-.665-.975-1.372-1.308-2.152a8.487 8.487 0 0 1-.661-2.427c-.038-.355-.082-.707-.072-1.065a9.542 9.542 0 0 1 .248-1.949c.108-.45.257-.887.431-1.315.157-.383.355-.745.563-1.102a9.403 9.403 0 0 1 1.165-1.58c.255-.281.533-.544.813-.801a11.67 11.67 0 0 1 1.752-1.302 8.943 8.943 0 0 1 1.202-.633c.194-.082.381-.18.577-.257.467-.184.947-.332 1.428-.475.412-.122.828-.23 1.252-.295.44-.067.881-.126 1.324-.178.784-.092 1.569-.072 2.354-.076 1.272-.007 2.543.004 3.815.007 1.126.003 2.252.006 3.378.006.98 0 1.96-.003 2.94-.005 1.709-.004 3.418-.009 5.128-.011.551-.001 1.102-.007 1.652.015 1.272.05 2.544 0 3.815.028.754.017 1.503.09 2.248.213.721.119 1.428.301 2.116.542.749.263 1.484.564 2.169.974.536.321 1.067.648 1.55 1.045.545.447 1.056.93 1.515 1.469a9.59 9.59 0 0 1 1.374 2.168c.204.434.372.88.493 1.344.223.859.349 1.733.295 2.622-.06.984-.246 1.945-.633 2.858a9.794 9.794 0 0 1-1.242 2.136 10.62 10.62 0 0 1-2.189 2.124c-.557.407-1.139.774-1.761 1.074a19.36 19.36 0 0 1-1.136.492c-.579.235-1.173.425-1.783.559a16.079 16.079 0 0 1-2.381.321c-1.028.06-2.057.045-3.086.045h-8.774v-.003zM153.316 29.968c-.235.007-.444.017-.653.018-.397.001-.793-.005-1.191-.005-.607 0-1.215.001-1.821.003-.469.001-.94.005-1.409.007-.291.001-.583.002-.873.001-.064 0-.127-.012-.187-.019-.059-.111-.04-.218-.04-.321a389.24 389.24 0 0 1-.004-1.871c0-2.803.001-5.607-.003-8.41 0-.486-.008-.973-.033-1.458a3.843 3.843 0 0 0-.583-1.88c-.396-.627-.943-1.054-1.592-1.379-.427-.213-.879-.318-1.344-.397a7.773 7.773 0 0 0-1.865-.076c-.565.041-1.125.13-1.663.328a5.246 5.246 0 0 0-1.029.489 4.314 4.314 0 0 0-.876.765 4.036 4.036 0 0 0-.821 1.446 5.724 5.724 0 0 0-.272 1.793 4638.926 4638.926 0 0 0-.002 10.72c0 .071-.008.143-.012.226-.064.01-.117.025-.171.026-.349.006-.697.01-1.045.012-.559.003-1.117.006-1.676.005-1.005-.001-2.009-.004-3.014-.008-.088 0-.176-.009-.253-.013-.072-.094-.051-.187-.052-.273-.004-.389-.002-.778-.001-1.167l.012-9.334c.001-.786-.003-1.572-.003-2.358l.001-6.368c0-.138.007-.275.014-.413.003-.047.016-.094.027-.151.059-.008.114-.021.168-.021l5.541.003c.136 0 .273.011.423.017.013.062.035.114.036.167.004.194.003.389.003.583l.001 1.142c0 .064.008.127.012.181.051.042.087.025.119-.002a.469.469 0 0 0 .089-.083c.297-.403.68-.713 1.083-1.001.244-.175.491-.343.767-.467.14-.063.272-.144.409-.213.465-.236.964-.378 1.465-.508a11.64 11.64 0 0 1 2.861-.36c.713-.005 1.425-.007 2.133.097.619.091 1.225.229 1.819.424.153.051.309.099.46.157.439.169.863.367 1.259.625.271.177.555.334.809.537.36.288.708.59 1.016.937.28.315.569.622.787.986.365.613.697 1.241.871 1.943.132.536.237 1.075.292 1.624.028.29.036.582.036.874.004 2.107.004 4.213.004 6.32l.001 5.348c0 .186-.001.373-.005.559-.001.055-.012.11-.021.196zM54.006 23.263c.039.069.064.109.085.151.164.317.333.632.571.9a3.93 3.93 0 0 0 1.149.919c.623.32 1.284.484 1.972.572.86.11 1.715.066 2.564-.085a2.985 2.985 0 0 0 1.144-.453c.405-.269.651-.84.554-1.338a.852.852 0 0 0-.197-.386 1.784 1.784 0 0 0-.399-.351c-.543-.35-1.142-.572-1.753-.767a19.664 19.664 0 0 0-1.834-.475 39.832 39.832 0 0 1-2.43-.595 14.783 14.783 0 0 1-2.232-.823c-.242-.113-.486-.222-.726-.339a5.672 5.672 0 0 1-1.065-.675c-.48-.388-.913-.828-1.208-1.381a4.974 4.974 0 0 1-.55-1.776 5.794 5.794 0 0 1 .25-2.471c.166-.521.427-.995.76-1.431.198-.259.428-.486.647-.724.194-.21.426-.374.66-.533a10.471 10.471 0 0 1 2.192-1.14c.236-.088.475-.162.718-.223.314-.079.626-.169.941-.239.65-.146 1.311-.211 1.974-.253a16.128 16.128 0 0 1 2.015 0c.818.05 1.625.164 2.419.378a9.53 9.53 0 0 1 1.662.608c.248.119.503.225.75.344.817.395 1.535.934 2.188 1.557.263.251.487.542.726.816.075.085.143.176.214.265.035.044.072.088.1.137.067.115.043.17-.078.224-.413.185-.826.374-1.238.561-.56.254-1.121.506-1.681.761-.272.124-.541.256-.813.379-.28.127-.562.249-.843.373-.147.065-.292.137-.443.196-.121.047-.145.033-.22-.076-.023-.033-.047-.067-.066-.102-.222-.407-.547-.717-.913-.993a3.782 3.782 0 0 0-1.682-.717 6.008 6.008 0 0 0-2.127.005 3.293 3.293 0 0 0-1.138.467 1.358 1.358 0 0 0-.617.866.611.611 0 0 0 .003.334c.089.287.239.534.494.7.21.137.426.265.648.381.643.336 1.335.535 2.032.723.783.212 1.583.341 2.372.525s1.57.399 2.331.679c.57.21 1.124.46 1.649.767.209.123.423.239.629.366a4.718 4.718 0 0 1 1.651 1.745c.259.463.427.961.521 1.483.088.489.113.983.078 1.477-.078 1.095-.433 2.086-1.134 2.945-.478.586-1.061 1.042-1.709 1.421a10.27 10.27 0 0 1-2.012.906c-.524.169-1.056.313-1.601.405-.415.07-.83.141-1.248.194-.611.078-1.227.097-1.843.104-.982.012-1.96-.039-2.931-.191-1.116-.174-2.208-.439-3.243-.905a9.09 9.09 0 0 1-2.118-1.317 8.18 8.18 0 0 1-1.663-1.887c-.078-.123-.16-.244-.236-.368-.042-.068-.024-.124.046-.162.05-.027.103-.049.154-.073.573-.266 1.146-.53 1.718-.797.345-.161.687-.327 1.031-.489.359-.169.719-.336 1.078-.503l1.034-.482c.08-.037.161-.071.265-.115zM35.543 9.902c-.029.083-.043.136-.066.185-.274.578-.555 1.152-.823 1.732-.488 1.059-.97 2.121-1.45 3.183-.237.524-.464 1.052-.701 1.576-.107.236-.231.464-.34.699-.235.507-.465 1.016-.698 1.524-.202.442-.406.882-.607 1.325-.304.671-.604 1.344-.909 2.015-.524 1.15-1.051 2.298-1.575 3.447a462.105 462.105 0 0 0-1.871 4.139c-.111.248-.108.25-.373.25l-6.61.003c-.264 0-.274-.01-.367-.257a6.456 6.456 0 0 0-.168-.403c-.351-.774-.702-1.548-1.056-2.322-.209-.456-.425-.91-.633-1.366-.491-1.075-.978-2.153-1.468-3.228-.406-.891-.815-1.781-1.222-2.672l-1.229-2.696c-.272-.597-.542-1.194-.816-1.789-.244-.53-.497-1.055-.738-1.586-.305-.671-.597-1.347-.902-2.018-.231-.508-.472-1.012-.708-1.518-.03-.065-.074-.128-.033-.206.072-.052.156-.034.235-.034a4253.07 4253.07 0 0 1 6.075-.005c.113 0 .227.004.34.011.116.008.189.071.233.182.134.339.272.676.411 1.013.2.487.402.973.604 1.459.028.067.063.131.094.197.028.058.06.115.084.175.123.317.239.636.368.951.206.502.422 1 .632 1.5.091.217.18.434.268.651.231.57.459 1.142.693 1.711.225.547.457 1.09.683 1.636.41.987.82 1.974 1.227 2.962.176.427.343.856.518 1.283.036.087.057.188.145.245.084-.013.093-.085.117-.141.147-.351.291-.704.437-1.055l1.043-2.487c.417-.993.836-1.985 1.25-2.979.215-.516.418-1.036.631-1.553.151-.367.313-.729.466-1.095.14-.336.273-.676.414-1.012.197-.471.399-.939.596-1.409.283-.672.563-1.344.845-2.017.006-.015.014-.03.018-.045.039-.138.131-.186.273-.186.624.003 1.247-.004 1.871-.004 1.434.001 2.867.004 4.301.006.097 0 .194-.006.291-.004.055.002.109.016.199.03zM38.583 9.889c.065-.005.136-.012.208-.014 1.368-.038 2.737-.035 4.105-.023.51.004 1.02.015 1.53.023.065.001.13.002.194.007.12.009.151.042.158.168.004.065.001.13.001.194.001.688.002 1.377.001 2.065 0 .267-.006.535-.007.802l-.004 3.087c-.007 2.803-.015 5.606-.02 8.408-.003 1.474-.001 2.949-.001 4.423 0 .219.008.437.01.656.001.08-.006.16-.009.247-.058.015-.103.035-.148.036a14.21 14.21 0 0 1-.461.006l-5.151.002c-.137 0-.274-.01-.419-.015-.016-.054-.038-.098-.04-.143a10.171 10.171 0 0 1-.009-.462l.001-10.864c0-.478.003-.956.001-1.434-.006-1.709-.015-3.418-.019-5.127-.001-.478.012-.956.018-1.434.002-.13 0-.259.003-.389a.87.87 0 0 1 .016-.144c.005-.022.022-.042.042-.077zM72.446 9.907c.071-.011.133-.028.195-.028a616.84 616.84 0 0 1 2.357-.005c.381 0 .761.006 1.142.005l2.211-.006c.057 0 .114-.003.17.002.105.008.137.044.144.156.002.032-.001.065-.001.097.001 1.855.005 3.71.003 5.565-.003 2.932-.01 5.865-.013 8.797-.002 1.701-.001 3.402-.002 5.103 0 .112.013.226-.021.334-.077.058-.161.043-.239.043-.656.003-1.312.005-1.968.004-1.231 0-2.462-.003-3.693-.004l-.248-.003c-.015-.058-.035-.103-.037-.148-.007-.17-.011-.34-.011-.51-.001-3.953 0-7.906-.002-11.859-.001-1.401-.009-2.803-.009-4.204-.001-1.045.005-2.09.009-3.135 0-.063.009-.126.015-.204zM41.78 7.511c-.687-.019-1.242-.083-1.767-.291a3.887 3.887 0 0 1-1.161-.693 3.86 3.86 0 0 1-.538-.591 2.735 2.735 0 0 1-.487-1.126 2.937 2.937 0 0 1 .007-1.086c.059-.331.198-.633.373-.917.214-.347.486-.64.812-.891.344-.265.72-.461 1.122-.618.305-.119.624-.172.944-.215a4.331 4.331 0 0 1 2.303.323c.331.14.619.35.899.57.301.236.563.51.768.836.267.427.433.887.432 1.395a3.48 3.48 0 0 1-.043.604c-.081.455-.295.854-.575 1.217-.405.526-.929.898-1.535 1.154-.231.097-.47.177-.719.216-.319.05-.636.124-.837.114zM75.5 1.074c.409-.019.809.05 1.203.144.331.079.645.219.935.398.401.247.78.527 1.075.899.486.613.761 1.302.644 2.096a2.887 2.887 0 0 1-.868 1.698 4.053 4.053 0 0 1-1.306.866c-.233.093-.471.17-.721.21-.638.101-1.272.112-1.907-.019-.671-.138-1.276-.41-1.792-.868-.212-.188-.419-.38-.583-.615-.276-.395-.409-.839-.473-1.311-.067-.49.028-.949.237-1.39.059-.124.115-.25.181-.371.142-.259.355-.46.566-.661.787-.748 1.745-1.052 2.809-1.077zM71.127 7.478l-.01-.03.02-.002zM71.93 10.904l.01-.015.006.017-.016-.002z" style="fill:var(--color3, #000)"/>
    </symbol>
    <symbol id="icon-logo-2" viewBox="0 0 168 32">
      <path fill="#fff" d="M101.541 15.497h-.213c-.335.004-.669.013-1.003.011-.627-.005-1.255-.022-1.882-.023-.535-.001-1.071.023-1.605.017-.446-.005-.884.051-1.324.102-.235.027-.455.112-.683.158-.381.077-.733.23-1.084.384a5.552 5.552 0 0 0-1.117.668c-.509.386-.977.809-1.325 1.355a4.677 4.677 0 0 0-.657 1.536c-.185.855-.134 1.7.184 2.517.211.54.504 1.038.893 1.473.325.362.681.687 1.086.961a6.678 6.678 0 0 0 1.779.854 7.132 7.132 0 0 0 1.878.296c.535.017 1.071.017 1.606.017 5.412.002 10.825.003 16.237.003l4.743-.003a8.057 8.057 0 0 0 1.791-.203c.319-.073.623-.188.927-.307a6.024 6.024 0 0 0 1.621-.94c.575-.469 1.059-1.019 1.393-1.691.229-.461.387-.945.453-1.454.077-.595.053-1.185-.137-1.762-.066-.198-.106-.407-.191-.596a4.983 4.983 0 0 0-.815-1.258 6.046 6.046 0 0 0-2.008-1.473 6.011 6.011 0 0 0-1.547-.502c-.445-.074-.893-.139-1.347-.139l-.803-.003-2.409-.005-1.456-.005c-.073 0-.153-.022-.219.068.021.059.045.129.071.197.026.071.059.139.081.21.164.555.275 1.115.271 1.702a4.756 4.756 0 0 1-.323 1.715 5.541 5.541 0 0 1-1.298 1.948c-.781.768-1.715 1.274-2.746 1.609a7.76 7.76 0 0 1-1.993.365c-1.38.073-2.699-.171-3.943-.782a6.232 6.232 0 0 1-2.099-1.639c-.491-.596-.862-1.246-1.06-1.998a5.188 5.188 0 0 1-.173-1.138c-.015-.393-.019-.787.094-1.169.085-.287.126-.589.288-.852.033-.053.035-.124.062-.225zm6.175 15.478H97.049c-.653 0-1.307-.021-1.955-.094a14.068 14.068 0 0 1-2.315-.441 15.533 15.533 0 0 1-2.292-.881c-.4-.188-.777-.426-1.161-.646a8.76 8.76 0 0 1-1.149-.808c-.625-.504-1.213-1.054-1.708-1.69-.536-.687-1.007-1.417-1.351-2.223a8.757 8.757 0 0 1-.682-2.507c-.04-.367-.085-.731-.074-1.1a9.75 9.75 0 0 1 .256-2.013c.111-.464.265-.916.445-1.358.162-.395.367-.769.582-1.138a9.717 9.717 0 0 1 1.203-1.632c.263-.291.55-.562.839-.827a12.134 12.134 0 0 1 1.81-1.345 9.07 9.07 0 0 1 1.242-.653c.2-.085.393-.186.595-.266.483-.19.977-.343 1.475-.49a9.628 9.628 0 0 1 1.293-.304c.455-.069.91-.13 1.367-.184.809-.095 1.621-.074 2.431-.079 1.313-.008 2.627.004 3.941.007 1.163.003 2.325.006 3.489.006 1.012 0 2.024-.003 3.037-.006 1.765-.004 3.531-.01 5.296-.011.569-.001 1.138-.007 1.706.016 1.313.052 2.627 0 3.94.029.779.017 1.552.093 2.321.22.745.123 1.475.31 2.185.559.773.271 1.533.582 2.239 1.006.553.331 1.102.669 1.601 1.079.563.462 1.091.961 1.565 1.517.58.68 1.04 1.433 1.419 2.239.211.448.385.909.509 1.388.231.887.361 1.79.305 2.708-.062 1.016-.254 2.009-.654 2.952-.335.788-.76 1.523-1.283 2.206a10.987 10.987 0 0 1-2.261 2.194c-.575.42-1.177.8-1.819 1.109-.383.185-.779.348-1.173.508-.598.243-1.212.439-1.841.577-.441.097-.888.166-1.335.228-.373.051-.748.083-1.123.105-1.062.062-2.125.047-3.187.047h-9.061v-.003zM157.95 30.782c-.243.007-.459.018-.675.019-.41.001-.82-.005-1.229-.005-.627 0-1.255.001-1.881.003-.485.001-.971.005-1.456.007-.301.001-.601.002-.903.001-.065 0-.129-.013-.191-.019-.061-.115-.041-.225-.042-.332-.003-.644-.003-1.289-.004-1.933 0-2.895.001-5.791-.002-8.686a29.107 29.107 0 0 0-.036-1.506 3.963 3.963 0 0 0-.601-1.941c-.408-.647-.973-1.088-1.644-1.424-.441-.22-.907-.329-1.388-.41a8.071 8.071 0 0 0-1.926-.078c-.585.042-1.163.134-1.717.339-.37.136-.733.292-1.064.504-.337.218-.635.49-.903.791a4.165 4.165 0 0 0-.849 1.494 5.954 5.954 0 0 0-.281 1.852c-.005 1.874-.005 3.749-.005 5.623-.001 1.816.001 3.632.002 5.448 0 .074-.008.148-.013.234-.066.01-.121.026-.177.027-.359.006-.719.01-1.079.012-.577.003-1.154.006-1.731.006-1.037-.001-2.074-.005-3.111-.008-.091 0-.182-.01-.261-.014-.075-.097-.053-.193-.054-.282-.003-.401-.002-.803-.001-1.205l.012-9.64c.001-.812-.003-1.623-.003-2.435-.001-2.192-.001-4.385.001-6.577 0-.142.007-.284.014-.426.003-.049.017-.097.027-.156.061-.008.118-.021.174-.021 1.908 0 3.815.001 5.723.003.141 0 .283.011.437.017.015.064.036.118.037.172.005.201.004.402.004.602v1.18c0 .066.009.132.013.187.052.043.089.026.123-.002a.466.466 0 0 0 .091-.086c.307-.416.703-.736 1.119-1.034.252-.18.507-.354.791-.483.145-.065.281-.148.423-.22.481-.244.996-.39 1.515-.525a12.053 12.053 0 0 1 2.954-.372c.737-.005 1.472-.007 2.204.1a11.18 11.18 0 0 1 1.878.438c.159.052.319.102.475.162.453.175.891.379 1.299.645.281.182.573.345.835.554a8.36 8.36 0 0 1 1.05.967c.289.325.589.643.812 1.018.378.633.721 1.282.899 2.007.137.553.246 1.111.302 1.677.029.299.037.601.037.902.004 2.176.003 4.351.005 6.527l.001 5.523c0 .192-.002.385-.006.577-.001.057-.012.114-.021.202zM55.383 23.857c.041.071.066.113.088.156.169.327.344.652.589.93a4.04 4.04 0 0 0 1.187.949c.643.33 1.326.5 2.037.591a8.742 8.742 0 0 0 2.648-.087 3.093 3.093 0 0 0 1.181-.467c.418-.278.672-.868.572-1.382a.884.884 0 0 0-.203-.398 1.88 1.88 0 0 0-.412-.363c-.561-.362-1.18-.591-1.81-.793a20.562 20.562 0 0 0-1.894-.491 40.588 40.588 0 0 1-2.509-.614 15.345 15.345 0 0 1-2.305-.85c-.25-.117-.502-.229-.75-.351a5.826 5.826 0 0 1-1.1-.697c-.496-.401-.943-.855-1.248-1.426a5.124 5.124 0 0 1-.568-1.834 5.996 5.996 0 0 1 .258-2.552 4.847 4.847 0 0 1 .785-1.478c.204-.267.442-.502.668-.747.2-.217.44-.387.682-.55.709-.48 1.461-.877 2.264-1.178.244-.091.49-.167.742-.23.324-.082.646-.174.972-.247.671-.151 1.354-.218 2.039-.261a16.624 16.624 0 0 1 2.082 0c.845.052 1.678.17 2.499.39a9.765 9.765 0 0 1 1.716.628c.256.123.519.232.775.356.844.408 1.585.964 2.26 1.608.271.259.502.559.75.843.077.088.148.181.22.273.037.046.075.091.103.141.069.119.045.176-.081.231-.427.191-.853.386-1.279.579-.578.262-1.157.522-1.735.786-.281.128-.558.264-.839.392-.289.131-.58.257-.87.386-.152.067-.302.142-.457.202-.125.049-.149.034-.227-.079a1.174 1.174 0 0 1-.068-.105c-.229-.42-.565-.74-.943-1.025a3.909 3.909 0 0 0-1.737-.74 6.19 6.19 0 0 0-2.197.005 3.412 3.412 0 0 0-1.175.482 1.406 1.406 0 0 0-.638.895.632.632 0 0 0 .003.345c.092.296.247.552.51.723.217.141.44.274.669.394.664.347 1.379.552 2.099.747.808.219 1.635.352 2.449.542s1.622.412 2.407.702a10.58 10.58 0 0 1 1.703.793c.216.127.437.246.65.378a4.86 4.86 0 0 1 1.705 1.803c.267.478.441.992.537 1.532a6.14 6.14 0 0 1 .081 1.525c-.081 1.131-.447 2.155-1.171 3.042-.493.605-1.095 1.077-1.765 1.468-.659.385-1.352.701-2.078.935-.541.175-1.091.323-1.653.418-.429.072-.858.146-1.289.201-.631.081-1.267.1-1.903.108a18.243 18.243 0 0 1-3.027-.197c-1.153-.18-2.28-.454-3.35-.935a9.424 9.424 0 0 1-2.188-1.36 8.428 8.428 0 0 1-1.718-1.949c-.081-.127-.165-.252-.244-.38-.043-.07-.024-.128.047-.167.051-.028.106-.05.159-.075.591-.275 1.184-.548 1.774-.824.356-.166.709-.338 1.065-.505l1.114-.52 1.068-.497c.083-.038.167-.073.273-.119zM36.315 10.058c-.031.086-.045.14-.069.191-.283.597-.573 1.19-.85 1.789a571.26 571.26 0 0 0-1.498 3.287c-.245.541-.479 1.087-.724 1.628-.11.243-.238.479-.351.721-.243.523-.481 1.049-.721 1.574-.209.456-.42.911-.627 1.368-.314.693-.623 1.389-.939 2.081-.541 1.187-1.085 2.373-1.627 3.56a680.51 680.51 0 0 0-1.932 4.275c-.114.256-.112.258-.385.258l-6.826.003c-.273 0-.283-.01-.379-.266a6.902 6.902 0 0 0-.173-.417c-.362-.8-.725-1.599-1.091-2.398-.216-.471-.439-.939-.654-1.411-.507-1.111-1.01-2.223-1.516-3.334-.419-.921-.842-1.84-1.262-2.76-.424-.928-.846-1.856-1.269-2.785-.281-.616-.56-1.233-.843-1.848-.252-.547-.513-1.089-.762-1.638-.315-.693-.617-1.391-.931-2.084-.238-.525-.488-1.046-.732-1.568-.031-.067-.076-.132-.034-.212.075-.054.161-.035.243-.035l3.689-.005c.862-.001 1.723-.002 2.585-.001.117 0 .234.004.351.012.12.008.195.073.24.188.138.35.281.698.424 1.046l.623 1.507c.029.069.065.135.097.203.029.06.062.119.087.181.127.327.246.657.38.982.213.518.436 1.032.653 1.549.094.224.186.448.277.673.239.589.474 1.179.715 1.767.232.565.472 1.126.706 1.69.423 1.019.847 2.039 1.267 3.06.181.441.354.885.535 1.325.037.09.059.194.149.253.086-.014.096-.087.121-.146.152-.363.3-.727.452-1.089l1.077-2.568c.431-1.026.863-2.05 1.291-3.077.222-.533.431-1.07.651-1.604.156-.379.323-.753.481-1.131.145-.347.282-.698.427-1.045.203-.486.412-.97.616-1.456a761.874 761.874 0 0 0 .891-2.129c.041-.143.135-.192.282-.192.644.003 1.288-.004 1.933-.004 1.481.001 2.961.005 4.442.007.1 0 .201-.007.301-.004.057.002.113.016.206.031zM39.455 10.044c.067-.005.14-.012.214-.015 1.413-.04 2.826-.036 4.24-.024.527.004 1.054.015 1.58.024.067.001.134.002.201.007.124.01.156.043.164.174.004.067.001.134.001.201.001.711.002 1.422.001 2.133 0 .276-.007.552-.007.828l-.004 3.188c-.007 2.895-.015 5.789-.021 8.684-.003 1.523-.002 3.046-.001 4.568 0 .226.008.452.01.677.001.082-.006.165-.009.255-.06.015-.106.036-.153.037-.159.006-.318.006-.477.006l-5.32.002c-.141 0-.283-.01-.433-.016-.016-.056-.039-.101-.041-.147a10.842 10.842 0 0 1-.009-.477l.002-11.22c0-.494.003-.987.001-1.481-.006-1.765-.015-3.53-.019-5.295-.001-.494.012-.987.018-1.481.002-.134 0-.268.003-.401.001-.05.007-.1.017-.148.005-.023.023-.043.043-.08zM74.428 10.063c.074-.011.137-.029.201-.029.811-.003 1.623-.005 2.434-.005.393 0 .786.006 1.179.006.761-.001 1.522-.004 2.283-.007.059 0 .117-.003.175.002.109.008.142.046.149.161.001.033-.001.067-.001.1.001 1.916.005 3.832.003 5.748-.003 3.028-.01 6.057-.014 9.085l-.003 5.271c0 .115.014.233-.021.345-.08.06-.166.045-.247.045-.677.003-1.355.005-2.032.005l-3.814-.004-.256-.003c-.016-.06-.037-.106-.039-.153a13.235 13.235 0 0 1-.011-.527c-.001-4.083 0-8.165-.002-12.248-.001-1.447-.009-2.895-.01-4.342-.001-1.079.005-2.158.009-3.237 0-.065.009-.13.015-.211zM42.757 7.589c-.71-.019-1.282-.085-1.825-.301a4.038 4.038 0 0 1-1.199-.715 3.914 3.914 0 0 1-.555-.611 2.83 2.83 0 0 1-.503-1.163 3.002 3.002 0 0 1 .008-1.122c.061-.342.205-.653.385-.947.221-.359.502-.662.839-.921a4.602 4.602 0 0 1 1.159-.638c.315-.123.645-.178.975-.222a4.474 4.474 0 0 1 2.379.334c.341.144.64.362.929.589.311.243.582.527.793.864.276.441.447.916.446 1.441-.001.208-.008.42-.044.624-.083.47-.305.882-.593 1.257-.418.543-.959.927-1.586 1.192-.238.1-.485.182-.743.223-.33.052-.657.128-.865.117zM77.582.94c.423-.019.836.051 1.243.148.342.082.666.226.965.411.414.255.805.544 1.11.929.501.633.786 1.344.665 2.165-.1.68-.396 1.271-.896 1.754-.395.381-.839.69-1.349.894-.24.096-.486.176-.744.217a5.458 5.458 0 0 1-1.97-.019c-.693-.142-1.317-.424-1.851-.896-.219-.194-.433-.393-.602-.635-.285-.408-.422-.866-.488-1.354-.069-.506.029-.98.245-1.436.061-.128.119-.259.187-.383.147-.268.367-.475.585-.683.813-.773 1.802-1.086 2.901-1.112zM73.065 7.553l-.011-.031.021-.002zM73.895 11.093l.011-.016.006.018-.017-.002z" style="fill:var(--color2, #fff)"/>
    </symbol>
    <symbol id="icon-telegram" viewBox="0 0 33 32">
      <path d="M15.96 31C7.697 31 1.223 24.411 1.223 16c0-3.629 1.237-7.111 3.485-9.804a.5.5 0 0 1 .768.641C3.378 9.35 2.223 12.604 2.223 16c0 7.851 6.034 14 13.737 14 7.865 0 14.263-6.28 14.263-14S23.825 2 15.96 2c-2.44 0-4.813.62-6.858 1.792a.5.5 0 0 1-.496-.869C10.802 1.665 13.345 1 15.96 1c8.416 0 15.263 6.729 15.263 15S24.376 31 15.96 31z"/>
      <path d="M7.766 4.552c0 .275-.225.5-.5.5s-.5-.225-.5-.5.225-.5.5-.5.5.224.5.5zM19.773 24.018a.496.496 0 0 1-.316-.113l-5.763-4.721a.5.5 0 0 1-.019-.758l4.277-3.86a.499.499 0 1 1 .67.742l-3.846 3.47 5.313 4.353a.5.5 0 0 1-.316.887z"/>
      <path d="M20.38 24.204c-.265 0-.55-.083-.849-.248l-3.286-2.641-1.684 1.553c-.234.229-.52.507-1.089.507-.7 0-.863-.369-.97-.748-.019-.065-.04-.141-.071-.228l-1.206-3.969-3.456-1.078c-.814-.25-.923-.749-.932-.951-.014-.336.161-.815 1.074-1.181l14.848-5.729a1.074 1.074 0 0 1 1.212.323c.203.249.281.573.215.889l-2.565 12.275c-.23 1.106-.945 1.226-1.241 1.226zm-4.157-4.049c.111 0 .222.037.313.111l3.55 2.862c.459.219.5-.085.557-.354L23.208 10.5l-.063-.081-14.866 5.732c-.175.07-.29.139-.36.19.037.018.086.037.147.056l3.711 1.158c.157.05.281.174.329.332l1.274 4.196c.033.088.061.188.085.272a.133.133 0 0 1 .005.019c.133-.001.203-.037.388-.218l2.026-1.87a.508.508 0 0 1 .339-.131z"/>
      <path d="M20.266 13.552c0 .275-.225.5-.5.5s-.5-.225-.5-.5.225-.5.5-.5.5.224.5.5z"/>
    </symbol>
    <symbol id="icon-bars" viewBox="0 0 32 32">
      <path  d="M4 10.667h24a1.333 1.333 0 0 0 0-2.666H4a1.333 1.333 0 0 0 0 2.666zm24 10.666H4a1.333 1.333 0 0 0 0 2.666h24a1.333 1.333 0 0 0 0-2.666zm0-6.666H4a1.333 1.333 0 0 0 0 2.666h24a1.333 1.333 0 0 0 0-2.666z"/>
    </symbol>
    <symbol id="icon-close" viewBox="0 0 32 32">
      <path d="m17.88 16 8.4-8.387a1.339 1.339 0 0 0-1.894-1.894l-8.387 8.4-8.387-8.4a1.339 1.339 0 0 0-1.894 1.894l8.4 8.387-8.4 8.387a1.333 1.333 0 0 0 0 1.894 1.333 1.333 0 0 0 1.894 0l8.387-8.4 8.387 8.4a1.333 1.333 0 0 0 1.894 0 1.333 1.333 0 0 0 0-1.894z"/>
    </symbol>
    <symbol id="icon-whatsapp" viewBox="0 0 32 32">
      <path d="M16.004 31c-2.868 0-5.646-.811-8.05-2.347l-5.348 1.709c-.179.057-.376.009-.509-.125s-.178-.332-.117-.51l1.725-5.146A14.837 14.837 0 0 1 1 16c0-4.076 1.612-7.891 4.539-10.742a.5.5 0 0 1 .697.716A13.895 13.895 0 0 0 2 16c0 2.974.922 5.811 2.665 8.204a.5.5 0 0 1 .069.454L3.242 29.11l4.633-1.481a.501.501 0 0 1 .429.059 13.912 13.912 0 0 0 7.7 2.312C23.722 30 30 23.72 30 16S23.722 2 16.004 2h-.003a13.83 13.83 0 0 0-6.164 1.429.5.5 0 0 1-.441-.897A14.823 14.823 0 0 1 15.996 1C24.272 1 31 7.729 31 16s-6.728 15-14.996 15z"/>
      <path d="M20.602 24.493c-1.011 0-2.422-.39-4.439-1.226-2.633-1.09-5.243-3.374-7.35-6.429l-.075-.107c-.696-.951-1.823-2.773-1.823-4.675 0-2.229 1.115-3.36 1.592-3.843.449-.461 1.12-.706 1.874-.706.19 0 .36.009.515.018.635.025 1.003.185 1.353 1.022l.363.88c.384.931.857 2.08.931 2.235.082.169.331.688.054 1.228-.148.316-.293.483-.492.713-.14.161-.233.261-.328.361-.11.118-.222.234-.334.375-.193.226-.193.226-.128.339.37.625 1.157 1.825 2.253 2.8 1.422 1.265 2.571 1.73 3.123 1.954l.137.056c.145.06.328.103.465-.042.248-.267.562-.706.894-1.171l.199-.279c.349-.493.779-.597 1.078-.597.175 0 .357.035.543.105.465.162 2.912 1.381 2.937 1.393l.235.115c.35.168.626.301.784.579.229.398.139 1.442-.209 2.427-.417 1.179-1.967 2.1-3.213 2.368a4.31 4.31 0 0 1-.939.107zM10.38 8.507c-.472 0-.902.142-1.124.369-.461.468-1.342 1.361-1.342 3.18 0 1.181.585 2.658 1.605 4.051l.116.165c1.998 2.898 4.452 5.055 6.909 6.072 1.893.785 3.182 1.15 4.057 1.15.3 0 .523-.042.727-.085.973-.21 2.198-.929 2.479-1.724.304-.857.298-1.516.262-1.647-.002.031-.182-.054-.327-.124l-.249-.122c-.701-.351-2.513-1.236-2.83-1.347a.573.573 0 0 0-.202-.045c-.045 0-.138 0-.264.178l-.2.28c-.351.492-.682.956-.976 1.272-.377.403-1.024.515-1.581.283l-.127-.052c-.557-.225-1.862-.753-3.413-2.133-1.196-1.066-2.049-2.363-2.451-3.042-.423-.729.006-1.231.212-1.472.131-.163.259-.298.387-.434.084-.089.168-.178.254-.278.225-.259.299-.345.396-.552.029-.057.045-.138-.059-.354-.076-.16-.562-1.334-.953-2.286l-.362-.877c-.165-.396-.165-.396-.479-.408a6.578 6.578 0 0 0-.465-.018zM8 4a.5.5 0 1 1-1 0 .5.5 0 0 1 1 0z"/>
    </symbol>
    <symbol id="icon-inst" viewBox="0 0 32 32">
      <path d="M22 28.5H10A6.5 6.5 0 0 1 3.5 22V10A6.5 6.5 0 0 1 10 3.5h12a6.5 6.5 0 0 1 6.5 6.5v12a6.5 6.5 0 0 1-6.5 6.5zm-12-24A5.5 5.5 0 0 0 4.5 10v12a5.5 5.5 0 0 0 5.5 5.5h12a5.5 5.5 0 0 0 5.5-5.5V10A5.5 5.5 0 0 0 22 4.5z"/>
      <path d="M16 21.835a5.834 5.834 0 1 1 0-11.67A5.834 5.834 0 0 1 21.835 16 5.84 5.84 0 0 1 16 21.835zm0-10.665a4.835 4.835 0 1 0 4.835 4.835V16A4.84 4.84 0 0 0 16 11.165zM22.25 10.5A1.75 1.75 0 1 1 24 8.75a1.75 1.75 0 0 1-1.75 1.75zm0-2.5a.75.75 0 1 0 .75.75.75.75 0 0 0-.75-.75z"/>
    </symbol>
    <symbol id="icon-lun" viewBox="0 0 32 32">
      <path d="M16.009.8h-.01a.795.795 0 0 0-.397.105l.004-.002-12.8 7.2A.802.802 0 0 0 2.4 8.8v14.4c0 .297.162.557.402.695l.004.002 12.8 7.2a.801.801 0 0 0 .792-.002l-.004.002 12.8-7.2c.244-.14.406-.4.406-.697V8.8a.801.801 0 0 0-.402-.695l-.004-.002-12.8-7.2A.791.791 0 0 0 16.01.8zM16 2.519 27.166 8.8 16 15.081 4.834 8.8 16 2.519zm-12 7.65 11.2 6.3v12.563L4 22.732V10.169zm24 0v12.563l-11.2 6.3V16.469l11.2-6.3z"/>
    </symbol>
  </defs>
</svg>
