<svg width="252" height="48" viewBox="0 0 252 48" fill="none" xmlns="http://www.w3.org/2000/svg">
<g clip-path="url(#clip0_1_144)">
<path d="M152.312 23.2456C152.163 23.2456 152.077 23.2447 151.992 23.2456C151.49 23.2516 150.988 23.2656 150.487 23.2619C149.546 23.2549 148.605 23.2293 147.664 23.2275C146.861 23.226 146.058 23.2627 145.256 23.2532C144.587 23.2451 143.93 23.3292 143.27 23.4061C142.918 23.447 142.588 23.5747 142.246 23.6436C141.674 23.7587 141.146 23.989 140.62 24.2199C140.023 24.4825 139.466 24.8258 138.945 25.2216C138.182 25.8009 137.48 26.4357 136.957 27.2542C136.498 27.9702 136.151 28.7299 135.972 29.5587C135.695 30.8415 135.771 32.1093 136.248 33.3345C136.564 34.145 137.004 34.8918 137.588 35.5442C138.075 36.0873 138.61 36.5752 139.217 36.986C140.044 37.546 140.932 37.9716 141.885 38.2664C142.804 38.5501 143.746 38.6793 144.702 38.71C145.504 38.7356 146.308 38.7349 147.111 38.735C155.229 38.738 163.348 38.7393 171.467 38.7399C173.838 38.74 176.21 38.7378 178.581 38.7347C179.488 38.7334 180.383 38.6326 181.268 38.43C181.746 38.3203 182.203 38.1473 182.659 37.969C183.542 37.6233 184.357 37.1561 185.091 36.5585C185.954 35.8548 186.68 35.0295 187.181 34.0222C187.524 33.331 187.762 32.6054 187.861 31.8407C187.977 30.9479 187.94 30.0627 187.655 29.1983C187.556 28.9009 187.496 28.5876 187.368 28.3037C187.058 27.6144 186.647 26.9831 186.146 26.4168C185.302 25.4638 184.284 24.7417 183.134 24.2068C182.393 23.8619 181.623 23.5886 180.814 23.4539C180.146 23.3425 179.475 23.2454 178.794 23.2453C178.393 23.2451 177.992 23.2419 177.59 23.241C176.386 23.2384 175.181 23.2365 173.977 23.2336C173.249 23.2317 172.521 23.2278 171.793 23.2265C171.684 23.2264 171.564 23.1928 171.464 23.3285C171.496 23.4174 171.531 23.5215 171.57 23.6246C171.609 23.7304 171.659 23.8325 171.691 23.9403C171.937 24.7732 172.104 25.6132 172.098 26.4932C172.092 27.387 171.934 28.244 171.614 29.0664C171.18 30.1785 170.521 31.1491 169.667 31.9883C168.495 33.1396 167.094 33.8995 165.548 34.4022C164.579 34.7178 163.577 34.8957 162.558 34.9494C160.488 35.0584 158.509 34.6931 156.643 33.7768C155.424 33.1781 154.364 32.3745 153.495 31.3189C152.759 30.425 152.202 29.4496 151.905 28.3217C151.756 27.7582 151.667 27.1928 151.646 26.6151C151.624 26.0256 151.617 25.434 151.787 24.8611C151.915 24.4304 151.976 23.977 152.219 23.5832C152.268 23.5043 152.272 23.3974 152.312 23.2456ZM161.574 46.462C156.24 46.462 150.907 46.4623 145.573 46.462C144.593 46.4618 143.613 46.4312 142.641 46.3213C141.468 46.1888 140.309 45.9872 139.169 45.66C137.982 45.319 136.844 44.8595 135.731 44.3379C135.131 44.0564 134.565 43.6994 133.989 43.3693C133.377 43.0195 132.812 42.5976 132.266 42.1579C131.328 41.4015 130.447 40.5763 129.704 39.6232C128.9 38.5925 128.194 37.4976 127.677 36.2889C127.161 35.0823 126.796 33.8382 126.654 32.5283C126.594 31.9785 126.526 31.4325 126.543 30.8779C126.572 29.8585 126.689 28.8507 126.927 27.8586C127.093 27.1619 127.324 26.4844 127.595 25.822C127.838 25.2291 128.145 24.6678 128.468 24.1147C128.982 23.2336 129.589 22.4198 130.273 21.6663C130.668 21.2303 131.098 20.8232 131.532 20.4259C132.368 19.6623 133.285 19.0038 134.247 18.4086C134.845 18.0388 135.461 17.7034 136.11 17.4284C136.41 17.3011 136.7 17.1493 137.003 17.0296C137.727 16.7441 138.469 16.5151 139.215 16.294C139.854 16.1048 140.498 15.9375 141.155 15.8376C141.837 15.7338 142.52 15.6421 143.206 15.5619C144.42 15.4196 145.637 15.4511 146.853 15.4438C148.823 15.4324 150.794 15.4501 152.764 15.4546C154.508 15.4587 156.252 15.4637 157.997 15.464C159.515 15.4644 161.033 15.459 162.552 15.4555C165.2 15.4496 167.848 15.4412 170.496 15.4385C171.349 15.4375 172.203 15.4283 173.055 15.462C175.025 15.5398 176.995 15.4622 178.965 15.5054C180.133 15.5311 181.293 15.6451 182.447 15.8356C183.565 16.0201 184.66 16.3012 185.725 16.6748C186.885 17.0815 188.024 17.5479 189.084 18.1831C189.914 18.6799 190.737 19.1872 191.485 19.8015C192.33 20.4947 193.121 21.2426 193.833 22.0768C194.703 23.0972 195.393 24.2258 195.961 25.4351C196.277 26.1068 196.538 26.7991 196.724 27.5167C197.07 28.8479 197.266 30.2017 197.181 31.5785C197.088 33.1029 196.8 34.5923 196.2 36.006C195.698 37.1887 195.06 38.2911 194.275 39.315C193.305 40.5819 192.167 41.6677 190.884 42.6057C190.022 43.2357 189.119 43.8053 188.156 44.2695C187.581 44.5471 186.988 44.7911 186.396 45.0318C185.499 45.3963 184.578 45.6898 183.634 45.8979C182.973 46.0434 182.302 46.1475 181.632 46.2394C181.073 46.3159 180.51 46.3632 179.947 46.3962C178.354 46.489 176.76 46.4662 175.166 46.4664C170.636 46.4666 166.105 46.4664 161.574 46.4664V46.462Z" fill="white"/>
<path d="M152.312 23.2456C152.163 23.2456 152.077 23.2447 151.992 23.2456C151.49 23.2516 150.988 23.2656 150.487 23.2619C149.546 23.2549 148.605 23.2293 147.664 23.2275C146.861 23.226 146.058 23.2627 145.256 23.2532C144.587 23.2451 143.93 23.3292 143.27 23.4061C142.918 23.447 142.588 23.5747 142.246 23.6436C141.674 23.7587 141.146 23.989 140.62 24.2199C140.023 24.4825 139.466 24.8258 138.945 25.2216C138.182 25.8009 137.48 26.4357 136.957 27.2542C136.498 27.9702 136.151 28.7299 135.972 29.5587C135.695 30.8415 135.771 32.1093 136.248 33.3345C136.564 34.145 137.004 34.8918 137.588 35.5442C138.075 36.0873 138.61 36.5752 139.217 36.986C140.044 37.546 140.932 37.9716 141.885 38.2664C142.804 38.5501 143.746 38.6793 144.702 38.71C145.504 38.7356 146.308 38.7349 147.111 38.735C155.229 38.738 163.348 38.7393 171.467 38.7399C173.838 38.74 176.21 38.7378 178.581 38.7347C179.488 38.7334 180.383 38.6326 181.268 38.43C181.746 38.3203 182.203 38.1473 182.659 37.969C183.542 37.6233 184.357 37.1561 185.091 36.5585C185.954 35.8548 186.68 35.0295 187.181 34.0222C187.524 33.331 187.762 32.6054 187.861 31.8407C187.977 30.9479 187.94 30.0627 187.655 29.1983C187.556 28.9009 187.496 28.5876 187.368 28.3037C187.058 27.6144 186.647 26.9831 186.146 26.4168C185.302 25.4638 184.284 24.7417 183.134 24.2068C182.393 23.8619 181.623 23.5886 180.814 23.4539C180.146 23.3425 179.475 23.2454 178.794 23.2453C178.393 23.2451 177.992 23.2419 177.59 23.241C176.386 23.2384 175.181 23.2365 173.977 23.2336C173.249 23.2317 172.521 23.2278 171.793 23.2265C171.684 23.2264 171.564 23.1928 171.464 23.3285C171.496 23.4174 171.531 23.5215 171.57 23.6246C171.609 23.7304 171.659 23.8325 171.691 23.9403C171.937 24.7732 172.104 25.6132 172.098 26.4932C172.092 27.387 171.934 28.244 171.614 29.0664C171.18 30.1785 170.521 31.1491 169.667 31.9883C168.495 33.1396 167.094 33.8995 165.548 34.4022C164.579 34.7178 163.577 34.8957 162.558 34.9494C160.488 35.0584 158.509 34.6931 156.643 33.7768C155.424 33.1781 154.364 32.3745 153.495 31.3189C152.759 30.425 152.202 29.4496 151.905 28.3217C151.756 27.7582 151.667 27.1928 151.646 26.6151C151.624 26.0256 151.617 25.434 151.787 24.8611C151.915 24.4304 151.976 23.977 152.219 23.5832C152.268 23.5043 152.272 23.3974 152.312 23.2456ZM161.574 46.462C156.24 46.462 150.907 46.4623 145.573 46.462C144.593 46.4618 143.613 46.4312 142.641 46.3213C141.468 46.1888 140.309 45.9872 139.169 45.66C137.982 45.319 136.844 44.8595 135.731 44.3379C135.131 44.0564 134.565 43.6994 133.989 43.3693C133.377 43.0195 132.812 42.5976 132.266 42.1579C131.328 41.4015 130.447 40.5763 129.704 39.6232C128.9 38.5925 128.194 37.4976 127.677 36.2889C127.161 35.0823 126.796 33.8382 126.654 32.5283C126.594 31.9785 126.526 31.4325 126.543 30.8779C126.572 29.8585 126.689 28.8507 126.927 27.8586C127.093 27.1619 127.324 26.4844 127.595 25.822C127.838 25.2291 128.145 24.6678 128.468 24.1147C128.982 23.2336 129.589 22.4198 130.273 21.6663C130.668 21.2303 131.098 20.8232 131.532 20.4259C132.368 19.6623 133.285 19.0038 134.247 18.4086C134.845 18.0388 135.461 17.7034 136.11 17.4284C136.41 17.3011 136.7 17.1493 137.003 17.0296C137.727 16.7441 138.469 16.5151 139.215 16.294C139.854 16.1048 140.498 15.9375 141.155 15.8376C141.837 15.7338 142.52 15.6421 143.206 15.5619C144.42 15.4196 145.637 15.4511 146.853 15.4438C148.823 15.4324 150.794 15.4501 152.764 15.4546C154.508 15.4587 156.252 15.4637 157.997 15.464C159.515 15.4644 161.033 15.459 162.552 15.4555C165.2 15.4496 167.848 15.4412 170.496 15.4385C171.349 15.4375 172.203 15.4283 173.055 15.462C175.025 15.5398 176.995 15.4622 178.965 15.5054C180.133 15.5311 181.293 15.6451 182.447 15.8356C183.565 16.0201 184.66 16.3012 185.725 16.6748C186.885 17.0815 188.024 17.5479 189.084 18.1831C189.914 18.6799 190.737 19.1872 191.485 19.8015C192.33 20.4947 193.121 21.2426 193.833 22.0768C194.703 23.0972 195.393 24.2258 195.961 25.4351C196.277 26.1068 196.538 26.7991 196.724 27.5167C197.07 28.8479 197.266 30.2017 197.181 31.5785C197.088 33.1029 196.8 34.5923 196.2 36.006C195.698 37.1887 195.06 38.2911 194.275 39.315C193.305 40.5819 192.167 41.6677 190.884 42.6057C190.022 43.2357 189.119 43.8053 188.156 44.2695C187.581 44.5471 186.988 44.7911 186.396 45.0318C185.499 45.3963 184.578 45.6898 183.634 45.8979C182.973 46.0434 182.302 46.1475 181.632 46.2394C181.073 46.3159 180.51 46.3632 179.947 46.3962C178.354 46.489 176.76 46.4662 175.166 46.4664C170.636 46.4666 166.105 46.4664 161.574 46.4664V46.462Z" fill="white" stroke="black" stroke-width="0.185298" stroke-miterlimit="10"/>
<path d="M236.925 46.1732C236.561 46.184 236.237 46.2003 235.912 46.2012C235.297 46.2031 234.682 46.1936 234.068 46.1933C233.127 46.1927 232.186 46.1951 231.246 46.1981C230.518 46.2003 229.79 46.2057 229.062 46.2085C228.611 46.2105 228.16 46.2122 227.708 46.2097C227.611 46.2092 227.514 46.1907 227.421 46.1808C227.33 46.0083 227.359 45.8427 227.358 45.6831C227.354 44.7168 227.353 43.7503 227.352 42.7838C227.352 38.4408 227.354 34.0976 227.349 29.7546C227.348 29.0017 227.336 28.2479 227.295 27.4963C227.239 26.4537 226.959 25.4831 226.393 24.5842C225.781 23.613 224.933 22.9517 223.927 22.4481C223.266 22.1177 222.567 21.955 221.845 21.8331C220.885 21.6708 219.921 21.6465 218.956 21.7154C218.079 21.7782 217.211 21.9166 216.38 22.2241C215.825 22.4288 215.28 22.6617 214.784 22.9808C214.278 23.3071 213.831 23.7151 213.429 24.1667C212.846 24.8223 212.43 25.5707 212.155 26.407C211.858 27.3123 211.736 28.2396 211.734 29.1851C211.727 31.9968 211.727 34.8086 211.727 37.6203C211.726 40.3441 211.729 43.0678 211.73 45.7917C211.73 45.9023 211.718 46.0131 211.711 46.1423C211.612 46.1579 211.529 46.181 211.446 46.1825C210.907 46.1914 210.367 46.1979 209.827 46.2007C208.962 46.2057 208.096 46.2101 207.23 46.209C205.674 46.2075 204.119 46.2022 202.563 46.1968C202.426 46.1962 202.29 46.1825 202.171 46.176C202.059 46.0302 202.091 45.886 202.09 45.7524C202.085 45.1502 202.087 44.5476 202.088 43.945C202.094 39.1251 202.101 34.3049 202.106 29.485C202.108 28.2675 202.101 27.05 202.101 25.8325C202.1 22.5439 202.1 19.2552 202.102 15.9667C202.102 15.7535 202.113 15.5402 202.123 15.3271C202.128 15.2539 202.148 15.1816 202.164 15.0932C202.256 15.0814 202.341 15.0612 202.425 15.061C205.287 15.061 208.148 15.0623 211.009 15.0654C211.221 15.0656 211.433 15.0818 211.664 15.0912C211.686 15.1866 211.718 15.2678 211.719 15.3497C211.727 15.6508 211.725 15.9521 211.725 16.2534C211.725 16.8434 211.723 17.4332 211.725 18.0232C211.725 18.1219 211.739 18.2205 211.745 18.3039C211.823 18.3687 211.879 18.3423 211.929 18.3013C211.978 18.262 212.029 18.2224 212.066 18.1729C212.527 17.5486 213.121 17.0685 213.744 16.6216C214.122 16.351 214.505 16.0905 214.931 15.8978C215.148 15.7998 215.352 15.6751 215.565 15.5674C216.286 15.2015 217.059 14.9817 217.837 14.7797C219.289 14.4025 220.768 14.2325 222.268 14.2214C223.373 14.2133 224.476 14.2105 225.574 14.3721C226.532 14.5133 227.472 14.7267 228.391 15.0295C228.63 15.1079 228.87 15.1822 229.104 15.2722C229.783 15.5341 230.44 15.8407 231.053 16.2399C231.474 16.5135 231.913 16.7572 232.306 17.0711C232.866 17.5177 233.404 17.9848 233.881 18.522C234.314 19.0101 234.764 19.4863 235.099 20.0492C235.666 20.9989 236.18 21.9721 236.448 23.059C236.653 23.889 236.817 24.7252 236.901 25.575C236.945 26.0238 236.956 26.4772 236.957 26.9286C236.963 30.192 236.962 33.4555 236.964 36.7192C236.965 39.4807 236.966 42.242 236.966 45.0036C236.966 45.2922 236.963 45.581 236.957 45.8695C236.955 45.9548 236.939 46.0398 236.925 46.1732Z" fill="white"/>
<path d="M236.925 46.1732C236.561 46.184 236.237 46.2003 235.912 46.2012C235.297 46.2031 234.682 46.1936 234.068 46.1933C233.127 46.1927 232.186 46.1951 231.246 46.1981C230.518 46.2003 229.79 46.2057 229.062 46.2085C228.611 46.2105 228.16 46.2122 227.708 46.2097C227.611 46.2092 227.514 46.1907 227.421 46.1808C227.33 46.0083 227.359 45.8427 227.358 45.6831C227.354 44.7168 227.353 43.7503 227.352 42.7838C227.352 38.4408 227.354 34.0976 227.349 29.7546C227.348 29.0017 227.336 28.2479 227.295 27.4963C227.239 26.4537 226.959 25.4831 226.393 24.5842C225.781 23.613 224.933 22.9517 223.927 22.4481C223.266 22.1177 222.567 21.955 221.845 21.8331C220.885 21.6708 219.921 21.6465 218.956 21.7154C218.079 21.7782 217.211 21.9166 216.38 22.2241C215.825 22.4288 215.28 22.6617 214.784 22.9808C214.278 23.3071 213.831 23.7151 213.429 24.1667C212.846 24.8223 212.43 25.5707 212.155 26.407C211.858 27.3123 211.736 28.2396 211.734 29.1851C211.727 31.9968 211.727 34.8086 211.727 37.6203C211.726 40.3441 211.729 43.0678 211.73 45.7917C211.73 45.9023 211.718 46.0131 211.711 46.1423C211.612 46.1579 211.529 46.181 211.446 46.1825C210.907 46.1914 210.367 46.1979 209.827 46.2007C208.962 46.2057 208.096 46.2101 207.23 46.209C205.674 46.2075 204.119 46.2022 202.563 46.1968C202.426 46.1962 202.29 46.1825 202.171 46.176C202.059 46.0302 202.091 45.886 202.09 45.7524C202.085 45.1502 202.087 44.5476 202.088 43.945C202.094 39.1251 202.101 34.3049 202.106 29.485C202.108 28.2675 202.101 27.05 202.101 25.8325C202.1 22.5439 202.1 19.2552 202.102 15.9667C202.102 15.7535 202.113 15.5402 202.123 15.3271C202.128 15.2539 202.148 15.1816 202.164 15.0932C202.256 15.0814 202.341 15.0612 202.425 15.061C205.287 15.061 208.148 15.0623 211.009 15.0654C211.221 15.0656 211.433 15.0818 211.664 15.0912C211.686 15.1866 211.718 15.2678 211.719 15.3497C211.727 15.6508 211.725 15.9521 211.725 16.2534C211.725 16.8434 211.723 17.4332 211.725 18.0232C211.725 18.1219 211.739 18.2205 211.745 18.3039C211.823 18.3687 211.879 18.3423 211.929 18.3013C211.978 18.262 212.029 18.2224 212.066 18.1729C212.527 17.5486 213.121 17.0685 213.744 16.6216C214.122 16.351 214.505 16.0905 214.931 15.8978C215.148 15.7998 215.352 15.6751 215.565 15.5674C216.286 15.2015 217.059 14.9817 217.837 14.7797C219.289 14.4025 220.768 14.2325 222.268 14.2214C223.373 14.2133 224.476 14.2105 225.574 14.3721C226.532 14.5133 227.472 14.7267 228.391 15.0295C228.63 15.1079 228.87 15.1822 229.104 15.2722C229.783 15.5341 230.44 15.8407 231.053 16.2399C231.474 16.5135 231.913 16.7572 232.306 17.0711C232.866 17.5177 233.404 17.9848 233.881 18.522C234.314 19.0101 234.764 19.4863 235.099 20.0492C235.666 20.9989 236.18 21.9721 236.448 23.059C236.653 23.889 236.817 24.7252 236.901 25.575C236.945 26.0238 236.956 26.4772 236.957 26.9286C236.963 30.192 236.962 33.4555 236.964 36.7192C236.965 39.4807 236.966 42.242 236.966 45.0036C236.966 45.2922 236.963 45.581 236.957 45.8695C236.955 45.9548 236.939 46.0398 236.925 46.1732Z" fill="white" stroke="black" stroke-width="0.185298" stroke-miterlimit="10"/>
<path d="M83.074 35.7862C83.1348 35.8932 83.1732 35.9552 83.2065 36.0201C83.46 36.5113 83.7231 36.9985 84.0906 37.415C84.5996 37.9922 85.176 38.4814 85.8705 38.8381C86.8352 39.3336 87.8599 39.5882 88.9259 39.7247C90.258 39.8954 91.5822 39.8274 92.898 39.5937C93.5304 39.4813 94.1233 39.2554 94.6696 38.8926C95.2972 38.4757 95.6778 37.5907 95.5279 36.8198C95.4843 36.5953 95.3695 36.3948 95.2227 36.2221C95.0441 36.0119 94.8384 35.829 94.6042 35.678C93.7627 35.1351 92.8348 34.7914 91.8886 34.4892C90.9553 34.191 90.0049 33.9607 89.0475 33.753C87.785 33.4793 86.5265 33.1852 85.2833 32.8319C84.0987 32.495 82.9425 32.0794 81.8257 31.5576C81.4506 31.3823 81.0722 31.2142 80.7007 31.0317C80.1135 30.743 79.5569 30.3954 79.0508 29.9864C78.3065 29.3851 77.6366 28.7036 77.1793 27.847C76.7194 26.9855 76.4417 26.065 76.3268 25.0955C76.1724 23.7908 76.3166 22.5135 76.7133 21.267C76.9703 20.4599 77.3741 19.7257 77.8901 19.0507C78.1964 18.6501 78.5531 18.2982 78.8928 17.9295C79.193 17.6037 79.5524 17.3497 79.9158 17.104C80.9794 16.3846 82.1073 15.7885 83.3123 15.3373C83.6781 15.2002 84.0478 15.087 84.425 14.9916C84.9112 14.8685 85.3941 14.7305 85.8831 14.6206C86.8895 14.3945 87.9134 14.2943 88.9411 14.2287C89.9817 14.1624 91.0224 14.1644 92.0634 14.2281C93.3314 14.3058 94.5808 14.4827 95.8114 14.8131C96.6997 15.0518 97.558 15.3568 98.3856 15.755C98.7697 15.9399 99.1642 16.1028 99.5479 16.2883C100.814 16.9005 101.926 17.7349 102.938 18.7007C103.344 19.0891 103.691 19.5397 104.063 19.9646C104.178 20.0967 104.285 20.2366 104.393 20.3745C104.448 20.443 104.505 20.5108 104.548 20.5863C104.652 20.7651 104.615 20.8496 104.427 20.9335C103.786 21.2205 103.148 21.5124 102.508 21.802C101.641 22.1948 100.772 22.5853 99.905 22.9805C99.4836 23.1725 99.0676 23.3765 98.6463 23.5681C98.2129 23.7652 97.7757 23.9539 97.3407 24.1468C97.1122 24.2479 96.8876 24.3593 96.6551 24.4499C96.4679 24.5229 96.4312 24.5011 96.3148 24.3321C96.2791 24.2804 96.2428 24.2288 96.2127 24.174C95.8685 23.5442 95.3646 23.0633 94.7989 22.636C94.0216 22.049 93.1451 21.6832 92.1936 21.5254C91.0991 21.3436 89.9977 21.3221 88.8983 21.5331C88.2596 21.6558 87.6798 21.9147 87.1357 22.2565C86.6369 22.5699 86.3177 23.0196 86.1792 23.5985C86.1368 23.7754 86.1303 23.944 86.1835 24.1156C86.3216 24.5598 86.5547 24.943 86.9492 25.2002C87.274 25.4122 87.6092 25.6112 87.9529 25.7907C88.9491 26.311 90.0219 26.6188 91.1008 26.9112C92.313 27.2398 93.5532 27.4395 94.7748 27.7249C95.9976 28.0104 97.2072 28.3423 98.3859 28.7772C99.2692 29.1031 100.127 29.4896 100.941 29.966C101.265 30.156 101.596 30.3355 101.916 30.5331C103.008 31.2068 103.85 32.1218 104.474 33.2369C104.875 33.9542 105.135 34.7252 105.28 35.5348C105.416 36.2923 105.455 37.0572 105.401 37.8227C105.279 39.5196 104.73 41.0548 103.644 42.3851C102.904 43.2927 102.001 43.9999 100.996 44.5866C100.007 45.1644 98.9683 45.6376 97.8791 45.9897C97.0675 46.2522 96.2426 46.4748 95.3997 46.6165C94.7565 46.7247 94.1133 46.8352 93.4666 46.9176C92.5196 47.0385 91.5657 47.0679 90.6118 47.0794C89.0908 47.0981 87.5747 47.0186 86.0712 46.7842C84.3424 46.5142 82.6512 46.1034 81.0469 45.3815C79.861 44.848 78.7638 44.1754 77.7652 43.341C76.7563 42.4977 75.8954 41.5258 75.1887 40.417C75.0673 40.2267 74.9409 40.0394 74.8233 39.8469C74.759 39.742 74.7866 39.6545 74.8942 39.5962C74.9713 39.5543 75.053 39.5209 75.1327 39.4839C76.0199 39.0721 76.9081 38.6623 77.7943 38.2483C78.3282 37.9989 78.8583 37.7415 79.3912 37.4904C79.9473 37.2288 80.5049 36.9707 81.0617 36.7109C81.5957 36.4618 82.1296 36.2126 82.6641 35.9649C82.7879 35.9074 82.9143 35.8555 83.074 35.7862Z" fill="white"/>
<path d="M83.074 35.7862C83.1348 35.8932 83.1732 35.9552 83.2065 36.0201C83.46 36.5113 83.7231 36.9985 84.0906 37.415C84.5996 37.9922 85.176 38.4814 85.8705 38.8381C86.8352 39.3336 87.8599 39.5882 88.9259 39.7247C90.258 39.8954 91.5822 39.8274 92.898 39.5937C93.5304 39.4813 94.1233 39.2554 94.6696 38.8926C95.2972 38.4757 95.6778 37.5907 95.5279 36.8198C95.4843 36.5953 95.3695 36.3948 95.2227 36.2221C95.0441 36.0119 94.8384 35.829 94.6042 35.678C93.7627 35.1351 92.8348 34.7914 91.8886 34.4892C90.9553 34.191 90.0049 33.9607 89.0475 33.753C87.785 33.4793 86.5265 33.1852 85.2833 32.8319C84.0987 32.495 82.9425 32.0794 81.8257 31.5576C81.4506 31.3823 81.0722 31.2142 80.7007 31.0317C80.1135 30.743 79.5569 30.3954 79.0508 29.9864C78.3065 29.3851 77.6366 28.7036 77.1793 27.847C76.7194 26.9855 76.4417 26.065 76.3268 25.0955C76.1724 23.7908 76.3166 22.5135 76.7133 21.267C76.9703 20.4599 77.3741 19.7257 77.8901 19.0507C78.1964 18.6501 78.5531 18.2982 78.8928 17.9295C79.193 17.6037 79.5524 17.3497 79.9158 17.104C80.9794 16.3846 82.1073 15.7885 83.3123 15.3373C83.6781 15.2002 84.0478 15.087 84.425 14.9916C84.9112 14.8685 85.3941 14.7305 85.8831 14.6206C86.8895 14.3945 87.9134 14.2943 88.9411 14.2287C89.9817 14.1624 91.0224 14.1644 92.0634 14.2281C93.3314 14.3058 94.5808 14.4827 95.8114 14.8131C96.6997 15.0518 97.558 15.3568 98.3856 15.755C98.7697 15.9399 99.1642 16.1028 99.5479 16.2883C100.814 16.9005 101.926 17.7349 102.938 18.7007C103.344 19.0891 103.691 19.5397 104.063 19.9646C104.178 20.0967 104.285 20.2366 104.393 20.3745C104.448 20.443 104.505 20.5108 104.548 20.5863C104.652 20.7651 104.615 20.8496 104.427 20.9335C103.786 21.2205 103.148 21.5124 102.508 21.802C101.641 22.1948 100.772 22.5853 99.905 22.9805C99.4836 23.1725 99.0676 23.3765 98.6463 23.5681C98.2129 23.7652 97.7757 23.9539 97.3407 24.1468C97.1122 24.2479 96.8876 24.3593 96.6551 24.4499C96.4679 24.5229 96.4312 24.5011 96.3148 24.3321C96.2791 24.2804 96.2428 24.2288 96.2127 24.174C95.8685 23.5442 95.3646 23.0633 94.7989 22.636C94.0216 22.049 93.1451 21.6832 92.1936 21.5254C91.0991 21.3436 89.9977 21.3221 88.8983 21.5331C88.2596 21.6558 87.6798 21.9147 87.1357 22.2565C86.6369 22.5699 86.3177 23.0196 86.1792 23.5985C86.1368 23.7754 86.1303 23.944 86.1835 24.1156C86.3216 24.5598 86.5547 24.943 86.9492 25.2002C87.274 25.4122 87.6092 25.6112 87.9529 25.7907C88.9491 26.311 90.0219 26.6188 91.1008 26.9112C92.313 27.2398 93.5532 27.4395 94.7748 27.7249C95.9976 28.0104 97.2072 28.3423 98.3859 28.7772C99.2692 29.1031 100.127 29.4896 100.941 29.966C101.265 30.156 101.596 30.3355 101.916 30.5331C103.008 31.2068 103.85 32.1218 104.474 33.2369C104.875 33.9542 105.135 34.7252 105.28 35.5348C105.416 36.2923 105.455 37.0572 105.401 37.8227C105.279 39.5196 104.73 41.0548 103.644 42.3851C102.904 43.2927 102.001 43.9999 100.996 44.5866C100.007 45.1644 98.9683 45.6376 97.8791 45.9897C97.0675 46.2522 96.2426 46.4748 95.3997 46.6165C94.7565 46.7247 94.1133 46.8352 93.4666 46.9176C92.5196 47.0385 91.5657 47.0679 90.6118 47.0794C89.0908 47.0981 87.5747 47.0186 86.0712 46.7842C84.3424 46.5142 82.6512 46.1034 81.0469 45.3815C79.861 44.848 78.7638 44.1754 77.7652 43.341C76.7563 42.4977 75.8954 41.5258 75.1887 40.417C75.0673 40.2267 74.9409 40.0394 74.8233 39.8469C74.759 39.742 74.7866 39.6545 74.8942 39.5962C74.9713 39.5543 75.053 39.5209 75.1327 39.4839C76.0199 39.0721 76.9081 38.6623 77.7943 38.2483C78.3282 37.9989 78.8583 37.7415 79.3912 37.4904C79.9473 37.2288 80.5049 36.9707 81.0617 36.7109C81.5957 36.4618 82.1296 36.2126 82.6641 35.9649C82.7879 35.9074 82.9143 35.8555 83.074 35.7862Z" fill="white" stroke="black" stroke-width="0.185298" stroke-miterlimit="10"/>
<path d="M54.4721 15.087C54.4263 15.2154 54.405 15.2975 54.3692 15.3729C53.9449 16.2677 53.5091 17.1572 53.0946 18.0566C52.3386 19.6969 51.5924 21.3418 50.8475 22.9872C50.48 23.7984 50.1289 24.6171 49.7618 25.4287C49.5965 25.7939 49.4042 26.1471 49.2354 26.5108C48.8711 27.2959 48.5142 28.0844 48.154 28.8713C47.8408 29.5555 47.5247 30.2383 47.2141 30.9235C46.7429 31.9632 46.2789 33.0063 45.8059 34.045C44.9948 35.8259 44.178 37.6044 43.3657 39.3848C42.8396 40.5375 42.3158 41.6912 41.7938 42.8458C41.3493 43.8286 40.907 44.8127 40.4671 45.7975C40.2957 46.182 40.2998 46.1844 39.8891 46.1848C36.4758 46.1865 33.0626 46.188 29.6494 46.1895C29.2406 46.1896 29.2243 46.1744 29.0809 45.7909C29.002 45.5798 28.9143 45.3715 28.8211 45.1661C28.2776 43.9664 27.7332 42.7672 27.1853 41.5694C26.862 40.8625 26.5275 40.1602 26.2049 39.453C25.445 37.7869 24.6905 36.1181 23.9313 34.4518C23.3022 33.0709 22.6685 31.6921 22.0383 30.3118C21.4029 28.9199 20.7692 27.5272 20.1345 26.1349C19.7134 25.2106 19.2951 24.2852 18.8701 23.3626C18.4922 22.5423 18.1002 21.7287 17.727 20.9063C17.2552 19.867 16.8016 18.8195 16.33 17.7801C15.9724 16.9924 15.5986 16.2118 15.2325 15.428C15.1854 15.3272 15.1183 15.2293 15.1819 15.1093C15.2938 15.0287 15.4235 15.0563 15.546 15.0561C17.3906 15.0524 19.2353 15.0509 21.0799 15.0492C22.3726 15.0481 23.665 15.0468 24.9575 15.0474C25.1329 15.0476 25.3088 15.0531 25.4839 15.065C25.664 15.0774 25.7769 15.1747 25.8445 15.3468C26.0513 15.872 26.2662 16.3937 26.4808 16.9157C26.791 17.6699 27.1028 18.4235 27.4158 19.1766C27.459 19.2803 27.5129 19.3798 27.5618 19.4812C27.6054 19.5714 27.6554 19.6593 27.6917 19.7523C27.8828 20.2428 28.0614 20.7384 28.2615 21.225C28.5812 22.0022 28.9152 22.7736 29.2412 23.5481C29.3822 23.8835 29.5199 24.2204 29.6564 24.5574C30.0144 25.4405 30.3672 26.3259 30.7295 27.2074C31.0777 28.0542 31.4368 28.8963 31.7879 29.7417C32.4231 31.2709 33.0579 32.8004 33.6887 34.3311C33.9609 34.9919 34.2199 35.6579 34.4909 36.319C34.5466 36.4545 34.5792 36.6096 34.7151 36.6987C34.8446 36.6779 34.8596 36.5677 34.8963 36.4797C35.1236 35.9356 35.3466 35.3896 35.5741 34.8457C36.1117 33.5612 36.6511 32.2775 37.1899 30.9937C37.8357 29.4554 38.4849 27.9185 39.1261 26.3782C39.4587 25.5791 39.7731 24.7725 40.1033 23.9724C40.3376 23.4043 40.5877 22.8427 40.8247 22.2757C41.0422 21.7548 41.2477 21.2289 41.4655 20.7079C41.7701 19.9787 42.0829 19.2529 42.3892 18.5243C42.8268 17.4835 43.2617 16.4416 43.6979 15.3998C43.7078 15.3766 43.7194 15.354 43.7263 15.3301C43.7874 15.1159 43.929 15.0414 44.1495 15.0426C45.1156 15.047 46.082 15.0359 47.0483 15.0366C49.2693 15.0381 51.4904 15.0435 53.7116 15.0466C53.8621 15.0468 54.0127 15.0366 54.1632 15.0409C54.248 15.0433 54.3324 15.0653 54.4721 15.087Z" fill="white"/>
<path d="M54.4721 15.087C54.4263 15.2154 54.405 15.2975 54.3692 15.3729C53.9449 16.2677 53.5091 17.1572 53.0946 18.0566C52.3386 19.6969 51.5924 21.3418 50.8475 22.9872C50.48 23.7984 50.1289 24.6171 49.7618 25.4287C49.5965 25.7939 49.4042 26.1471 49.2354 26.5108C48.8711 27.2959 48.5142 28.0844 48.154 28.8713C47.8408 29.5555 47.5247 30.2383 47.2141 30.9235C46.7429 31.9632 46.2789 33.0063 45.8059 34.045C44.9948 35.8259 44.178 37.6044 43.3657 39.3848C42.8396 40.5375 42.3158 41.6912 41.7938 42.8458C41.3493 43.8286 40.907 44.8127 40.4671 45.7975C40.2957 46.182 40.2998 46.1844 39.8891 46.1848C36.4758 46.1865 33.0626 46.188 29.6494 46.1895C29.2406 46.1896 29.2243 46.1744 29.0809 45.7909C29.002 45.5798 28.9143 45.3715 28.8211 45.1661C28.2776 43.9664 27.7332 42.7672 27.1853 41.5694C26.862 40.8625 26.5275 40.1602 26.2049 39.453C25.445 37.7869 24.6905 36.1181 23.9313 34.4518C23.3022 33.0709 22.6685 31.6921 22.0383 30.3118C21.4029 28.9199 20.7692 27.5272 20.1345 26.1349C19.7134 25.2106 19.2951 24.2852 18.8701 23.3626C18.4922 22.5423 18.1002 21.7287 17.727 20.9063C17.2552 19.867 16.8016 18.8195 16.33 17.7801C15.9724 16.9924 15.5986 16.2118 15.2325 15.428C15.1854 15.3272 15.1183 15.2293 15.1819 15.1093C15.2938 15.0287 15.4235 15.0563 15.546 15.0561C17.3906 15.0524 19.2353 15.0509 21.0799 15.0492C22.3726 15.0481 23.665 15.0468 24.9575 15.0474C25.1329 15.0476 25.3088 15.0531 25.4839 15.065C25.664 15.0774 25.7769 15.1747 25.8445 15.3468C26.0513 15.872 26.2662 16.3937 26.4808 16.9157C26.791 17.6699 27.1028 18.4235 27.4158 19.1766C27.459 19.2803 27.5129 19.3798 27.5618 19.4812C27.6054 19.5714 27.6554 19.6593 27.6917 19.7523C27.8828 20.2428 28.0614 20.7384 28.2615 21.225C28.5812 22.0022 28.9152 22.7736 29.2412 23.5481C29.3822 23.8835 29.5199 24.2204 29.6564 24.5574C30.0144 25.4405 30.3672 26.3259 30.7295 27.2074C31.0777 28.0542 31.4368 28.8963 31.7879 29.7417C32.4231 31.2709 33.0579 32.8004 33.6887 34.3311C33.9609 34.9919 34.2199 35.6579 34.4909 36.319C34.5466 36.4545 34.5792 36.6096 34.7151 36.6987C34.8446 36.6779 34.8596 36.5677 34.8963 36.4797C35.1236 35.9356 35.3466 35.3896 35.5741 34.8457C36.1117 33.5612 36.6511 32.2775 37.1899 30.9937C37.8357 29.4554 38.4849 27.9185 39.1261 26.3782C39.4587 25.5791 39.7731 24.7725 40.1033 23.9724C40.3376 23.4043 40.5877 22.8427 40.8247 22.2757C41.0422 21.7548 41.2477 21.2289 41.4655 20.7079C41.7701 19.9787 42.0829 19.2529 42.3892 18.5243C42.8268 17.4835 43.2617 16.4416 43.6979 15.3998C43.7078 15.3766 43.7194 15.354 43.7263 15.3301C43.7874 15.1159 43.929 15.0414 44.1495 15.0426C45.1156 15.047 46.082 15.0359 47.0483 15.0366C49.2693 15.0381 51.4904 15.0435 53.7116 15.0466C53.8621 15.0468 54.0127 15.0366 54.1632 15.0409C54.248 15.0433 54.3324 15.0653 54.4721 15.087Z" fill="white" stroke="black" stroke-width="0.185298" stroke-miterlimit="10"/>
<path d="M59.182 15.0666C59.2821 15.0595 59.3927 15.0479 59.5035 15.0447C61.6231 14.9854 63.7431 14.9908 65.8633 15.0086C66.6534 15.0151 67.4437 15.0316 68.234 15.044C68.3344 15.0456 68.4349 15.0473 68.5349 15.0549C68.7204 15.0692 68.769 15.1199 68.7803 15.3152C68.7862 15.4153 68.7818 15.5159 68.7818 15.6164C68.7827 16.6829 68.7845 17.7495 68.7836 18.8159C68.7832 19.23 68.7736 19.6442 68.7729 20.0583C68.7697 21.6522 68.7701 23.246 68.7666 24.8399C68.7564 29.1818 68.7434 33.5239 68.7351 37.866C68.7306 40.1502 68.7328 42.4343 68.7339 44.7185C68.7341 45.0572 68.7462 45.3959 68.7491 45.7347C68.7503 45.8583 68.7402 45.982 68.7351 46.1177C68.645 46.1407 68.5757 46.1712 68.5055 46.1736C68.2674 46.1822 68.0289 46.1823 67.7906 46.1825C65.1305 46.1842 62.4705 46.1859 59.8104 46.1855C59.5982 46.1855 59.386 46.1707 59.1605 46.1621C59.1361 46.0786 59.102 46.0106 59.0988 45.9411C59.0883 45.703 59.0847 45.4643 59.0847 45.226C59.0851 39.6161 59.0859 34.0061 59.087 28.3963C59.0872 27.6559 59.0909 26.9154 59.0883 26.175C59.0792 23.5273 59.0655 20.8796 59.0595 18.2318C59.0579 17.4914 59.0777 16.7511 59.087 16.0109C59.0894 15.8102 59.0875 15.6095 59.092 15.4088C59.0935 15.3343 59.1025 15.2593 59.1168 15.1863C59.1238 15.1516 59.1513 15.1212 59.182 15.0666Z" fill="white"/>
<path d="M59.182 15.0666C59.2821 15.0595 59.3927 15.0479 59.5035 15.0447C61.6231 14.9854 63.7431 14.9908 65.8633 15.0086C66.6534 15.0151 67.4437 15.0316 68.234 15.044C68.3344 15.0456 68.4349 15.0473 68.5349 15.0549C68.7204 15.0692 68.769 15.1199 68.7803 15.3152C68.7862 15.4153 68.7818 15.5159 68.7818 15.6164C68.7827 16.6829 68.7845 17.7495 68.7836 18.8159C68.7832 19.23 68.7736 19.6442 68.7729 20.0583C68.7697 21.6522 68.7701 23.246 68.7666 24.8399C68.7564 29.1818 68.7434 33.5239 68.7351 37.866C68.7306 40.1502 68.7328 42.4343 68.7339 44.7185C68.7341 45.0572 68.7462 45.3959 68.7491 45.7347C68.7503 45.8583 68.7402 45.982 68.7351 46.1177C68.645 46.1407 68.5757 46.1712 68.5055 46.1736C68.2674 46.1822 68.0289 46.1823 67.7906 46.1825C65.1305 46.1842 62.4705 46.1859 59.8104 46.1855C59.5982 46.1855 59.386 46.1707 59.1605 46.1621C59.1361 46.0786 59.102 46.0106 59.0988 45.9411C59.0883 45.703 59.0847 45.4643 59.0847 45.226C59.0851 39.6161 59.0859 34.0061 59.087 28.3963C59.0872 27.6559 59.0909 26.9154 59.0883 26.175C59.0792 23.5273 59.0655 20.8796 59.0595 18.2318C59.0579 17.4914 59.0777 16.7511 59.087 16.0109C59.0894 15.8102 59.0875 15.6095 59.092 15.4088C59.0935 15.3343 59.1025 15.2593 59.1168 15.1863C59.1238 15.1516 59.1513 15.1212 59.182 15.0666Z" fill="white" stroke="black" stroke-width="0.185298" stroke-miterlimit="10"/>
<path d="M111.642 15.0949C111.753 15.0782 111.848 15.0515 111.944 15.0509C113.161 15.0459 114.378 15.0433 115.595 15.043C116.185 15.0428 116.774 15.0519 117.364 15.0513C118.506 15.05 119.647 15.0448 120.789 15.0413C120.877 15.0411 120.965 15.0372 121.052 15.0437C121.215 15.0558 121.265 15.1126 121.275 15.2853C121.277 15.3352 121.274 15.3856 121.274 15.4358C121.276 18.3096 121.282 21.1834 121.279 24.0572C121.275 28.5997 121.264 33.1425 121.258 37.6853C121.255 40.3206 121.257 42.9559 121.254 45.5914C121.254 45.7646 121.275 45.941 121.222 46.1094C121.102 46.1999 120.973 46.1762 120.851 46.1767C119.835 46.181 118.819 46.1839 117.803 46.1836C115.896 46.1828 113.989 46.1797 112.082 46.1774C111.958 46.1773 111.834 46.1743 111.698 46.1726C111.674 46.0826 111.643 46.0133 111.64 45.9429C111.629 45.6796 111.623 45.4161 111.623 45.1526C111.622 39.0285 111.623 32.9044 111.62 26.7801C111.619 24.6092 111.606 22.4382 111.605 20.2673C111.604 18.6487 111.613 17.0299 111.619 15.4112C111.619 15.3133 111.633 15.2157 111.642 15.0949Z" fill="white"/>
<path d="M111.642 15.0949C111.753 15.0782 111.848 15.0515 111.944 15.0509C113.161 15.0459 114.378 15.0433 115.595 15.043C116.185 15.0428 116.774 15.0519 117.364 15.0513C118.506 15.05 119.647 15.0448 120.789 15.0413C120.877 15.0411 120.965 15.0372 121.052 15.0437C121.215 15.0558 121.265 15.1126 121.275 15.2853C121.277 15.3352 121.274 15.3856 121.274 15.4358C121.276 18.3096 121.282 21.1834 121.279 24.0572C121.275 28.5997 121.264 33.1425 121.258 37.6853C121.255 40.3206 121.257 42.9559 121.254 45.5914C121.254 45.7646 121.275 45.941 121.222 46.1094C121.102 46.1999 120.973 46.1762 120.851 46.1767C119.835 46.181 118.819 46.1839 117.803 46.1836C115.896 46.1828 113.989 46.1797 112.082 46.1774C111.958 46.1773 111.834 46.1743 111.698 46.1726C111.674 46.0826 111.643 46.0133 111.64 45.9429C111.629 45.6796 111.623 45.4161 111.623 45.1526C111.622 39.0285 111.623 32.9044 111.62 26.7801C111.619 24.6092 111.606 22.4382 111.605 20.2673C111.604 18.6487 111.613 17.0299 111.619 15.4112C111.619 15.3133 111.633 15.2157 111.642 15.0949Z" fill="white" stroke="black" stroke-width="0.185298" stroke-miterlimit="10"/>
<path d="M64.1351 11.3833C63.0707 11.3542 62.2115 11.2551 61.3979 10.9323C60.7436 10.6729 60.1334 10.3306 59.5992 9.85943C59.2864 9.58352 59.0133 9.27463 58.7661 8.9435C58.3779 8.42356 58.1374 7.83579 58.0123 7.19911C57.9017 6.63673 57.9239 6.07509 58.0239 5.51623C58.1155 5.0037 58.3312 4.53601 58.6021 4.09611C58.9334 3.55782 59.3553 3.10384 59.8599 2.71509C60.3932 2.30428 60.9754 2.00021 61.5982 1.75802C62.0703 1.57421 62.5652 1.49156 63.0609 1.4243C64.2946 1.25735 65.4852 1.44153 66.629 1.92479C67.1412 2.14122 67.5883 2.46753 68.0224 2.80792C68.4886 3.17314 68.8952 3.59803 69.2115 4.10352C69.6253 4.76504 69.8825 5.47695 69.8802 6.26447C69.8793 6.57669 69.8687 6.89374 69.8145 7.20003C69.6896 7.90546 69.3577 8.52288 68.9243 9.08563C68.297 9.89982 67.4858 10.4768 66.546 10.8732C66.1889 11.0238 65.8183 11.1469 65.4322 11.2075C64.9374 11.2855 64.4464 11.3989 64.1351 11.3833Z" fill="white"/>
<path d="M64.1351 11.3833C63.0707 11.3542 62.2115 11.2551 61.3979 10.9323C60.7436 10.6729 60.1334 10.3306 59.5992 9.85943C59.2864 9.58352 59.0133 9.27463 58.7661 8.9435C58.3779 8.42356 58.1374 7.83579 58.0123 7.19911C57.9017 6.63673 57.9239 6.07509 58.0239 5.51623C58.1155 5.0037 58.3312 4.53601 58.6021 4.09611C58.9334 3.55782 59.3553 3.10384 59.8599 2.71509C60.3932 2.30428 60.9754 2.00021 61.5982 1.75802C62.0703 1.57421 62.5652 1.49156 63.0609 1.4243C64.2946 1.25735 65.4852 1.44153 66.629 1.92479C67.1412 2.14122 67.5883 2.46753 68.0224 2.80792C68.4886 3.17314 68.8952 3.59803 69.2115 4.10352C69.6253 4.76504 69.8825 5.47695 69.8802 6.26447C69.8793 6.57669 69.8687 6.89374 69.8145 7.20003C69.6896 7.90546 69.3577 8.52288 68.9243 9.08563C68.297 9.89982 67.4858 10.4768 66.546 10.8732C66.1889 11.0238 65.8183 11.1469 65.4322 11.2075C64.9374 11.2855 64.4464 11.3989 64.1351 11.3833Z" fill="white" stroke="black" stroke-width="0.185298" stroke-miterlimit="10"/>
<path d="M116.373 1.40956C117.008 1.38066 117.627 1.48665 118.237 1.63229C118.75 1.75477 119.236 1.97176 119.685 2.24878C120.306 2.6316 120.893 3.0652 121.35 3.64222C122.102 4.59242 122.529 5.65881 122.347 6.88937C122.197 7.90962 121.753 8.79609 121.003 9.52005C120.41 10.0922 119.745 10.5551 118.979 10.8616C118.619 11.0056 118.25 11.1251 117.863 11.1866C116.875 11.3434 115.892 11.3595 114.908 11.1575C113.868 10.9441 112.932 10.522 112.132 9.81356C111.803 9.52227 111.483 9.22468 111.229 8.86094C110.802 8.24891 110.596 7.56182 110.497 6.82971C110.394 6.06999 110.54 5.35956 110.864 4.67636C110.956 4.48384 111.042 4.28835 111.144 4.10175C111.364 3.69984 111.694 3.38891 112.022 3.07798C113.241 1.91913 114.725 1.44903 116.373 1.40956Z" fill="white"/>
<path d="M116.373 1.40956C117.008 1.38066 117.627 1.48665 118.237 1.63229C118.75 1.75477 119.236 1.97176 119.685 2.24878C120.306 2.6316 120.893 3.0652 121.35 3.64222C122.102 4.59242 122.529 5.65881 122.347 6.88937C122.197 7.90962 121.753 8.79609 121.003 9.52005C120.41 10.0922 119.745 10.5551 118.979 10.8616C118.619 11.0056 118.25 11.1251 117.863 11.1866C116.875 11.3434 115.892 11.3595 114.908 11.1575C113.868 10.9441 112.932 10.522 112.132 9.81356C111.803 9.52227 111.483 9.22468 111.229 8.86094C110.802 8.24891 110.596 7.56182 110.497 6.82971C110.394 6.06999 110.54 5.35956 110.864 4.67636C110.956 4.48384 111.042 4.28835 111.144 4.10175C111.364 3.69984 111.694 3.38891 112.022 3.07798C113.241 1.91913 114.725 1.44903 116.373 1.40956Z" fill="white" stroke="black" stroke-width="0.185298" stroke-miterlimit="10"/>
<path d="M109.598 11.3301C109.592 11.3148 109.587 11.2995 109.582 11.2842C109.592 11.2829 109.602 11.2818 109.613 11.2807" fill="white"/>
<path d="M109.598 11.3301C109.592 11.3148 109.587 11.2995 109.582 11.2842C109.592 11.2829 109.602 11.2818 109.613 11.2807" stroke="black" stroke-width="0.185298" stroke-miterlimit="10"/>
<path d="M110.842 16.6393L110.858 16.6157L110.867 16.6426L110.842 16.6393Z" fill="white"/>
<path d="M110.842 16.6393L110.858 16.6157L110.867 16.6426L110.842 16.6393Z" fill="white" stroke="black" stroke-width="0.185298" stroke-miterlimit="10"/>
</g>
<defs>
<clipPath id="clip0_1_144">
<rect width="252" height="47.5082" fill="white" transform="translate(0 0.478516)"/>
</clipPath>
</defs>
</svg>
