<svg width="123" height="24" viewBox="0 0 123 24" fill="none" xmlns="http://www.w3.org/2000/svg">
<g clip-path="url(#clip0_35_586)">
<rect width="122" height="23" transform="translate(0.285767 0.354492)" fill="white"/>
<path d="M74.0239 11.3762C73.9521 11.3762 73.9106 11.3758 73.8691 11.3762C73.6262 11.3791 73.3833 11.3859 73.1403 11.3841C72.6848 11.3807 72.2293 11.3683 71.7737 11.3674C71.3851 11.3667 70.9963 11.3845 70.6079 11.3799C70.2842 11.3759 69.966 11.4167 69.6464 11.4539C69.4762 11.4737 69.3166 11.5355 69.1508 11.5689C68.8741 11.6246 68.6182 11.7361 68.3637 11.8479C68.0745 11.975 67.8051 12.1412 67.5527 12.3328C67.1834 12.6133 66.8437 12.9206 66.5902 13.3168C66.3682 13.6635 66.2 14.0313 66.1135 14.4325C65.9794 15.0536 66.0164 15.6674 66.2473 16.2605C66.4003 16.6529 66.6129 17.0144 66.896 17.3303C67.1317 17.5932 67.3904 17.8294 67.6842 18.0283C68.0849 18.2994 68.5146 18.5054 68.9763 18.6482C69.4209 18.7855 69.8772 18.848 70.3399 18.8629C70.7284 18.8753 71.1174 18.875 71.5061 18.875C75.4365 18.8765 79.367 18.8771 83.2974 18.8774C84.4456 18.8775 85.5937 18.8764 86.7418 18.8749C87.1807 18.8742 87.6142 18.8254 88.0423 18.7274C88.2739 18.6743 88.4952 18.5905 88.7158 18.5042C89.1432 18.3368 89.5382 18.1106 89.8931 17.8213C90.3111 17.4806 90.6627 17.0811 90.9049 16.5934C91.071 16.2588 91.1865 15.9075 91.2344 15.5373C91.2903 15.1051 91.2727 14.6765 91.1345 14.2581C91.0869 14.1141 91.0576 13.9624 90.9958 13.8249C90.8458 13.4912 90.6464 13.1856 90.4039 12.9115C89.9956 12.4501 89.5028 12.1005 88.9459 11.8415C88.5869 11.6746 88.2142 11.5422 87.8226 11.477C87.4994 11.4231 87.1743 11.3761 86.8449 11.376C86.6506 11.3759 86.4564 11.3744 86.2621 11.374C85.6789 11.3727 85.0957 11.3718 84.5125 11.3704C84.1601 11.3695 83.8078 11.3676 83.4556 11.367C83.4028 11.3669 83.3446 11.3506 83.2961 11.4163C83.3114 11.4594 83.3286 11.5098 83.3473 11.5597C83.3663 11.6109 83.3903 11.6603 83.4058 11.7125C83.525 12.1157 83.606 12.5224 83.6032 12.9484C83.6004 13.3812 83.5237 13.7961 83.3685 14.1942C83.1586 14.7326 82.8395 15.2025 82.4261 15.6088C81.8589 16.1661 81.1806 16.534 80.4321 16.7774C79.9628 16.9302 79.4777 17.0163 78.9844 17.0423C77.9825 17.0951 77.0243 16.9182 76.121 16.4746C75.5306 16.1848 75.0177 15.7957 74.5968 15.2847C74.2406 14.8519 73.9709 14.3797 73.827 13.8337C73.7549 13.5608 73.7118 13.2872 73.7016 13.0074C73.6911 12.7221 73.6877 12.4356 73.7701 12.1583C73.8319 11.9498 73.8613 11.7303 73.979 11.5396C74.0026 11.5014 74.0046 11.4497 74.0239 11.3762ZM78.5082 22.6159C75.926 22.6159 73.3437 22.616 70.7614 22.6159C70.2872 22.6158 69.8128 22.601 69.3419 22.5478C68.7745 22.4836 68.2132 22.386 67.6615 22.2276C67.0866 22.0625 66.5355 21.8401 65.9967 21.5875C65.7061 21.4513 65.4325 21.2784 65.1532 21.1186C64.8572 20.9493 64.5837 20.745 64.3194 20.5321C63.8651 20.1659 63.4385 19.7665 63.0787 19.305C62.6899 18.8061 62.3478 18.276 62.0976 17.6908C61.8478 17.1066 61.671 16.5043 61.6021 15.8702C61.5733 15.604 61.5406 15.3397 61.5484 15.0712C61.5628 14.5777 61.6193 14.0898 61.7344 13.6095C61.8151 13.2722 61.927 12.9442 62.058 12.6235C62.1754 12.3364 62.3241 12.0647 62.4805 11.7969C62.7296 11.3704 63.0234 10.9764 63.3542 10.6116C63.5457 10.4005 63.7537 10.2035 63.9642 10.0111C64.3688 9.64143 64.8128 9.32261 65.2785 9.03447C65.5678 8.85541 65.8662 8.69304 66.1801 8.55992C66.3255 8.49829 66.4658 8.42482 66.6126 8.36686C66.9629 8.22863 67.3225 8.11775 67.6836 8.01073C67.9927 7.91914 68.3045 7.83813 68.6229 7.78977C68.9529 7.73954 69.2837 7.69513 69.6156 7.65629C70.2036 7.5874 70.7927 7.60264 71.3814 7.59915C72.3351 7.59358 73.289 7.6022 74.2428 7.60435C75.0873 7.60632 75.9318 7.60875 76.7763 7.60892C77.5114 7.6091 78.2464 7.6065 78.9816 7.6048C80.2634 7.60193 81.5453 7.59789 82.8273 7.59655C83.2403 7.5961 83.6538 7.59161 84.0663 7.60794C85.02 7.64562 85.974 7.60803 86.9276 7.62893C87.493 7.6414 88.0548 7.69657 88.6134 7.78879C89.1544 7.87814 89.6845 8.01422 90.2002 8.19508C90.7616 8.39198 91.3132 8.61778 91.8266 8.92529C92.2283 9.1658 92.6265 9.41142 92.989 9.7088C93.398 10.0444 93.7808 10.4065 94.1254 10.8103C94.5467 11.3043 94.8807 11.8508 95.1557 12.4362C95.3086 12.7614 95.435 13.0965 95.5253 13.444C95.6928 14.0884 95.7873 14.7438 95.7464 15.4104C95.7013 16.1484 95.5618 16.8694 95.2715 17.5538C95.0286 18.1264 94.7194 18.6601 94.3397 19.1558C93.8699 19.7692 93.3191 20.2948 92.6978 20.7489C92.2804 21.054 91.8432 21.3297 91.3771 21.5544C91.0986 21.6888 90.8118 21.807 90.525 21.9235C90.0911 22.0999 89.6449 22.242 89.1879 22.3428C88.8681 22.4132 88.5432 22.4636 88.2185 22.5081C87.9482 22.5452 87.6753 22.568 87.4028 22.584C86.6319 22.629 85.8601 22.6179 85.0885 22.618C82.8952 22.6181 80.7016 22.618 78.5082 22.618V22.6159Z" fill="black"/>
<path d="M74.0239 11.3762C73.9521 11.3762 73.9106 11.3758 73.8691 11.3762C73.6262 11.3791 73.3833 11.3859 73.1403 11.3841C72.6848 11.3807 72.2293 11.3683 71.7737 11.3674C71.3851 11.3667 70.9963 11.3845 70.6079 11.3799C70.2842 11.3759 69.966 11.4167 69.6464 11.4539C69.4762 11.4737 69.3166 11.5355 69.1508 11.5689C68.8741 11.6246 68.6182 11.7361 68.3637 11.8479C68.0745 11.975 67.8051 12.1412 67.5527 12.3328C67.1834 12.6133 66.8437 12.9206 66.5902 13.3168C66.3682 13.6635 66.2 14.0313 66.1135 14.4325C65.9794 15.0536 66.0164 15.6674 66.2473 16.2605C66.4003 16.6529 66.6129 17.0144 66.896 17.3303C67.1317 17.5932 67.3904 17.8294 67.6842 18.0283C68.0849 18.2994 68.5146 18.5054 68.9763 18.6482C69.4209 18.7855 69.8772 18.848 70.3399 18.8629C70.7284 18.8753 71.1174 18.875 71.5061 18.875C75.4365 18.8765 79.367 18.8771 83.2974 18.8774C84.4456 18.8775 85.5937 18.8764 86.7418 18.8749C87.1807 18.8742 87.6142 18.8254 88.0423 18.7274C88.2739 18.6743 88.4952 18.5905 88.7158 18.5042C89.1432 18.3368 89.5382 18.1106 89.8931 17.8213C90.3111 17.4806 90.6627 17.0811 90.9049 16.5934C91.071 16.2588 91.1865 15.9075 91.2344 15.5373C91.2903 15.1051 91.2727 14.6765 91.1345 14.2581C91.0869 14.1141 91.0576 13.9624 90.9958 13.8249C90.8458 13.4912 90.6464 13.1856 90.4039 12.9115C89.9956 12.4501 89.5028 12.1005 88.9459 11.8415C88.5869 11.6746 88.2142 11.5422 87.8226 11.477C87.4994 11.4231 87.1743 11.3761 86.8449 11.376C86.6506 11.3759 86.4564 11.3744 86.2621 11.374C85.6789 11.3727 85.0957 11.3718 84.5125 11.3704C84.1601 11.3695 83.8078 11.3676 83.4556 11.367C83.4028 11.3669 83.3446 11.3506 83.2961 11.4163C83.3114 11.4594 83.3286 11.5098 83.3473 11.5597C83.3663 11.6109 83.3903 11.6603 83.4058 11.7125C83.525 12.1157 83.606 12.5224 83.6032 12.9484C83.6004 13.3812 83.5237 13.7961 83.3685 14.1942C83.1586 14.7326 82.8395 15.2025 82.4261 15.6088C81.8589 16.1661 81.1806 16.534 80.4321 16.7774C79.9628 16.9302 79.4777 17.0163 78.9844 17.0423C77.9825 17.0951 77.0243 16.9182 76.121 16.4746C75.5306 16.1848 75.0177 15.7957 74.5968 15.2847C74.2406 14.8519 73.9709 14.3797 73.827 13.8337C73.7549 13.5608 73.7118 13.2872 73.7016 13.0074C73.6911 12.7221 73.6877 12.4356 73.7701 12.1583C73.8319 11.9498 73.8613 11.7303 73.979 11.5396C74.0026 11.5014 74.0046 11.4497 74.0239 11.3762ZM78.5082 22.6159C75.926 22.6159 73.3437 22.616 70.7614 22.6159C70.2872 22.6158 69.8128 22.601 69.3419 22.5478C68.7745 22.4836 68.2132 22.386 67.6615 22.2276C67.0866 22.0625 66.5355 21.8401 65.9967 21.5875C65.7061 21.4513 65.4325 21.2784 65.1532 21.1186C64.8572 20.9493 64.5837 20.745 64.3194 20.5321C63.8651 20.1659 63.4385 19.7665 63.0787 19.305C62.6899 18.8061 62.3478 18.276 62.0976 17.6908C61.8478 17.1066 61.671 16.5043 61.6021 15.8702C61.5733 15.604 61.5406 15.3397 61.5484 15.0712C61.5628 14.5777 61.6193 14.0898 61.7344 13.6095C61.8151 13.2722 61.927 12.9442 62.058 12.6235C62.1754 12.3364 62.3241 12.0647 62.4805 11.7969C62.7296 11.3704 63.0234 10.9764 63.3542 10.6116C63.5457 10.4005 63.7537 10.2035 63.9642 10.0111C64.3688 9.64143 64.8128 9.32261 65.2785 9.03447C65.5678 8.85541 65.8662 8.69304 66.1801 8.55992C66.3255 8.49829 66.4658 8.42482 66.6126 8.36686C66.9629 8.22863 67.3225 8.11775 67.6836 8.01073C67.9927 7.91914 68.3045 7.83813 68.6229 7.78977C68.9529 7.73954 69.2837 7.69513 69.6156 7.65629C70.2036 7.5874 70.7927 7.60264 71.3814 7.59915C72.3351 7.59358 73.289 7.6022 74.2428 7.60435C75.0873 7.60632 75.9318 7.60875 76.7763 7.60892C77.5114 7.6091 78.2464 7.6065 78.9816 7.6048C80.2634 7.60193 81.5453 7.59789 82.8273 7.59655C83.2403 7.5961 83.6538 7.59161 84.0663 7.60794C85.02 7.64562 85.974 7.60803 86.9276 7.62893C87.493 7.6414 88.0548 7.69657 88.6134 7.78879C89.1544 7.87814 89.6845 8.01422 90.2002 8.19508C90.7616 8.39198 91.3132 8.61778 91.8266 8.92529C92.2283 9.1658 92.6265 9.41142 92.989 9.7088C93.398 10.0444 93.7808 10.4065 94.1254 10.8103C94.5467 11.3043 94.8807 11.8508 95.1557 12.4362C95.3086 12.7614 95.435 13.0965 95.5253 13.444C95.6928 14.0884 95.7873 14.7438 95.7464 15.4104C95.7013 16.1484 95.5618 16.8694 95.2715 17.5538C95.0286 18.1264 94.7194 18.6601 94.3397 19.1558C93.8699 19.7692 93.3191 20.2948 92.6978 20.7489C92.2804 21.054 91.8432 21.3297 91.3771 21.5544C91.0986 21.6888 90.8118 21.807 90.525 21.9235C90.0911 22.0999 89.6449 22.242 89.1879 22.3428C88.8681 22.4132 88.5432 22.4636 88.2185 22.5081C87.9482 22.5452 87.6753 22.568 87.4028 22.584C86.6319 22.629 85.8601 22.6179 85.0885 22.618C82.8952 22.6181 80.7016 22.618 78.5082 22.618V22.6159Z" fill="black" stroke="black" stroke-width="0.0897077" stroke-miterlimit="10"/>
<path d="M114.987 22.4759C114.811 22.4811 114.654 22.489 114.497 22.4894C114.199 22.4903 113.902 22.4858 113.604 22.4856C113.149 22.4853 112.693 22.4865 112.238 22.4879C111.886 22.489 111.533 22.4916 111.181 22.4929C110.963 22.4939 110.744 22.4947 110.526 22.4936C110.478 22.4933 110.431 22.4843 110.386 22.4796C110.342 22.3961 110.356 22.3159 110.356 22.2386C110.354 21.7708 110.353 21.3029 110.353 20.835C110.353 18.7324 110.354 16.6297 110.351 14.5272C110.351 14.1627 110.345 13.7978 110.326 13.4339C110.298 12.9291 110.163 12.4592 109.889 12.024C109.592 11.5539 109.182 11.2337 108.695 10.9899C108.375 10.83 108.036 10.7512 107.687 10.6922C107.222 10.6136 106.755 10.6018 106.288 10.6352C105.864 10.6656 105.444 10.7326 105.041 10.8814C104.773 10.9806 104.509 11.0933 104.269 11.2478C104.023 11.4058 103.807 11.6033 103.612 11.8219C103.33 12.1393 103.129 12.5017 102.996 12.9065C102.852 13.3448 102.793 13.7937 102.792 14.2515C102.789 15.6127 102.788 16.9739 102.788 18.3352C102.788 19.6539 102.789 20.9725 102.79 22.2912C102.79 22.3447 102.784 22.3984 102.781 22.4609C102.733 22.4684 102.693 22.4797 102.653 22.4804C102.391 22.4847 102.13 22.4878 101.869 22.4892C101.45 22.4916 101.031 22.4937 100.612 22.4932C99.8583 22.4925 99.105 22.4899 98.3518 22.4873C98.2857 22.487 98.2198 22.4804 98.1622 22.4772C98.108 22.4066 98.1236 22.3368 98.1231 22.2722C98.1204 21.9806 98.1217 21.6889 98.1221 21.3972C98.125 19.0637 98.1283 16.7301 98.1308 14.3966C98.1314 13.8073 98.1283 13.2178 98.1282 12.6284C98.1279 11.0363 98.128 9.44415 98.1287 7.8521C98.1288 7.74885 98.1339 7.6456 98.1391 7.54243C98.1411 7.507 98.1512 7.47201 98.159 7.42922C98.2033 7.42348 98.2443 7.4137 98.2853 7.41361C99.6705 7.41361 101.056 7.41424 102.441 7.41577C102.543 7.41586 102.646 7.42366 102.758 7.42824C102.768 7.47443 102.784 7.51373 102.785 7.55338C102.788 7.69915 102.787 7.84502 102.787 7.99088C102.788 8.27651 102.787 8.56205 102.788 8.84768C102.788 8.89549 102.794 8.94322 102.797 8.98359C102.835 9.01499 102.862 9.00216 102.886 8.98233C102.91 8.96331 102.935 8.94412 102.953 8.92016C103.176 8.61794 103.463 8.38551 103.765 8.16913C103.948 8.03816 104.133 7.91203 104.34 7.81873C104.445 7.77128 104.544 7.7109 104.647 7.65878C104.996 7.48161 105.37 7.37522 105.746 7.27744C106.449 7.09479 107.166 7.01253 107.892 7.00715C108.427 7.0032 108.961 7.00185 109.492 7.08008C109.956 7.14844 110.411 7.25178 110.856 7.39836C110.971 7.43631 111.088 7.47228 111.201 7.51588C111.53 7.64264 111.848 7.7911 112.145 7.98433C112.348 8.11683 112.561 8.2348 112.752 8.38676C113.022 8.60296 113.283 8.82911 113.514 9.08917C113.724 9.32546 113.941 9.55601 114.104 9.82854C114.378 10.2883 114.627 10.7594 114.757 11.2857C114.856 11.6875 114.935 12.0923 114.976 12.5037C114.997 12.721 115.003 12.9405 115.003 13.159C115.006 14.739 115.006 16.3189 115.006 17.8989C115.007 19.2358 115.007 20.5727 115.007 21.9097C115.007 22.0493 115.006 22.1892 115.003 22.3289C115.002 22.3701 114.994 22.4113 114.987 22.4759Z" fill="black"/>
<path d="M114.987 22.4759C114.811 22.4811 114.654 22.489 114.497 22.4894C114.199 22.4903 113.902 22.4858 113.604 22.4856C113.149 22.4853 112.693 22.4865 112.238 22.4879C111.886 22.489 111.533 22.4916 111.181 22.4929C110.963 22.4939 110.744 22.4947 110.526 22.4936C110.478 22.4933 110.431 22.4843 110.386 22.4796C110.342 22.3961 110.356 22.3159 110.356 22.2386C110.354 21.7708 110.353 21.3029 110.353 20.835C110.353 18.7324 110.354 16.6297 110.351 14.5272C110.351 14.1627 110.345 13.7978 110.326 13.4339C110.298 12.9291 110.163 12.4592 109.889 12.024C109.592 11.5539 109.182 11.2337 108.695 10.9899C108.375 10.83 108.036 10.7512 107.687 10.6922C107.222 10.6136 106.755 10.6018 106.288 10.6352C105.864 10.6656 105.444 10.7326 105.041 10.8814C104.773 10.9806 104.509 11.0933 104.269 11.2478C104.023 11.4058 103.807 11.6033 103.612 11.8219C103.33 12.1393 103.129 12.5017 102.996 12.9065C102.852 13.3448 102.793 13.7937 102.792 14.2515C102.789 15.6127 102.788 16.9739 102.788 18.3352C102.788 19.6539 102.789 20.9725 102.79 22.2912C102.79 22.3447 102.784 22.3984 102.781 22.4609C102.733 22.4684 102.693 22.4797 102.653 22.4804C102.391 22.4847 102.13 22.4878 101.869 22.4892C101.45 22.4916 101.031 22.4937 100.612 22.4932C99.8583 22.4925 99.105 22.4899 98.3518 22.4873C98.2857 22.487 98.2198 22.4804 98.1622 22.4772C98.108 22.4066 98.1236 22.3368 98.1231 22.2722C98.1204 21.9806 98.1217 21.6889 98.1221 21.3972C98.125 19.0637 98.1283 16.7301 98.1308 14.3966C98.1314 13.8073 98.1283 13.2178 98.1282 12.6284C98.1279 11.0363 98.128 9.44415 98.1287 7.8521C98.1288 7.74885 98.1339 7.6456 98.1391 7.54243C98.1411 7.507 98.1512 7.47201 98.159 7.42922C98.2033 7.42348 98.2443 7.4137 98.2853 7.41361C99.6705 7.41361 101.056 7.41424 102.441 7.41577C102.543 7.41586 102.646 7.42366 102.758 7.42824C102.768 7.47443 102.784 7.51373 102.785 7.55338C102.788 7.69915 102.787 7.84502 102.787 7.99088C102.788 8.27651 102.787 8.56205 102.788 8.84768C102.788 8.89549 102.794 8.94322 102.797 8.98359C102.835 9.01499 102.862 9.00216 102.886 8.98233C102.91 8.96331 102.935 8.94412 102.953 8.92016C103.176 8.61794 103.463 8.38551 103.765 8.16913C103.948 8.03816 104.133 7.91203 104.34 7.81873C104.445 7.77128 104.544 7.7109 104.647 7.65878C104.996 7.48161 105.37 7.37522 105.746 7.27744C106.449 7.09479 107.166 7.01253 107.892 7.00715C108.427 7.0032 108.961 7.00185 109.492 7.08008C109.956 7.14844 110.411 7.25178 110.856 7.39836C110.971 7.43631 111.088 7.47228 111.201 7.51588C111.53 7.64264 111.848 7.7911 112.145 7.98433C112.348 8.11683 112.561 8.2348 112.752 8.38676C113.022 8.60296 113.283 8.82911 113.514 9.08917C113.724 9.32546 113.941 9.55601 114.104 9.82854C114.378 10.2883 114.627 10.7594 114.757 11.2857C114.856 11.6875 114.935 12.0923 114.976 12.5037C114.997 12.721 115.003 12.9405 115.003 13.159C115.006 14.739 115.006 16.3189 115.006 17.8989C115.007 19.2358 115.007 20.5727 115.007 21.9097C115.007 22.0493 115.006 22.1892 115.003 22.3289C115.002 22.3701 114.994 22.4113 114.987 22.4759Z" fill="black" stroke="black" stroke-width="0.0897077" stroke-miterlimit="10"/>
<path d="M40.5042 17.4474C40.5336 17.4992 40.5522 17.5292 40.5683 17.5606C40.691 17.7984 40.8184 18.0343 40.9963 18.2359C41.2427 18.5154 41.5218 18.7522 41.858 18.9249C42.3251 19.1648 42.8211 19.288 43.3372 19.3542C43.9821 19.4368 44.6232 19.4039 45.2602 19.2907C45.5664 19.2363 45.8534 19.1269 46.1179 18.9513C46.4217 18.7494 46.606 18.321 46.5334 17.9478C46.5123 17.8391 46.4567 17.742 46.3857 17.6584C46.2992 17.5567 46.1996 17.4681 46.0862 17.395C45.6789 17.1322 45.2296 16.9658 44.7716 16.8195C44.3197 16.6751 43.8596 16.5636 43.3961 16.4631C42.7849 16.3306 42.1756 16.1882 41.5738 16.0171C41.0002 15.854 40.4405 15.6528 39.8998 15.4002C39.7182 15.3153 39.5351 15.234 39.3552 15.1456C39.0709 15.0058 38.8014 14.8376 38.5564 14.6396C38.1961 14.3485 37.8718 14.0185 37.6504 13.6038C37.4277 13.1868 37.2933 12.7411 37.2376 12.2717C37.1629 11.6401 37.2327 11.0217 37.4248 10.4183C37.5492 10.0275 37.7447 9.6721 37.9945 9.34529C38.1428 9.15134 38.3155 8.98099 38.4799 8.80247C38.6252 8.64477 38.7993 8.52178 38.9752 8.40282C39.4901 8.05458 40.0362 7.76599 40.6195 7.54755C40.7966 7.48117 40.9756 7.42636 41.1582 7.38016C41.3936 7.32059 41.6274 7.25376 41.8641 7.20056C42.3513 7.09112 42.8471 7.04259 43.3446 7.01083C43.8484 6.97871 44.3522 6.9797 44.8562 7.01056C45.47 7.04815 46.0749 7.13382 46.6707 7.29377C47.1007 7.40931 47.5163 7.55697 47.9169 7.74975C48.1029 7.83928 48.2938 7.91813 48.4796 8.00793C49.0924 8.30432 49.631 8.70828 50.1207 9.17583C50.3176 9.36386 50.4856 9.58203 50.6653 9.78773C50.7212 9.85169 50.7727 9.91942 50.8255 9.98616C50.8517 10.0194 50.8794 10.0522 50.9005 10.0887C50.9504 10.1753 50.9325 10.2162 50.8417 10.2568C50.5316 10.3958 50.2225 10.5371 49.9129 10.6773C49.4928 10.8675 49.0721 11.0565 48.6525 11.2478C48.4485 11.3407 48.2471 11.4395 48.0431 11.5323C47.8333 11.6277 47.6217 11.719 47.411 11.8124C47.3004 11.8614 47.1917 11.9153 47.0791 11.9592C46.9885 11.9945 46.9707 11.984 46.9144 11.9021C46.8971 11.8771 46.8795 11.8522 46.865 11.8256C46.6983 11.5207 46.4544 11.2879 46.1805 11.081C45.8042 10.7969 45.3799 10.6198 44.9192 10.5433C44.3893 10.4553 43.8561 10.4449 43.3239 10.5471C43.0146 10.6065 42.7339 10.7318 42.4706 10.8973C42.2291 11.049 42.0745 11.2667 42.0075 11.547C41.9869 11.6327 41.9838 11.7143 42.0096 11.7974C42.0764 12.0124 42.1892 12.1979 42.3802 12.3224C42.5375 12.425 42.6998 12.5214 42.8662 12.6083C43.3484 12.8602 43.8678 13.0092 44.3901 13.1508C44.977 13.3098 45.5774 13.4065 46.1688 13.5447C46.7608 13.6829 47.3464 13.8436 47.9171 14.0541C48.3447 14.2119 48.7598 14.3991 49.154 14.6297C49.3111 14.7217 49.4713 14.8086 49.6261 14.9042C50.1546 15.2304 50.5622 15.6734 50.8644 16.2132C51.0588 16.5605 51.1846 16.9338 51.2548 17.3257C51.3205 17.6924 51.3395 18.0627 51.313 18.4333C51.2543 19.2548 50.9884 19.9981 50.4628 20.6421C50.1042 21.0815 49.667 21.4239 49.1808 21.7079C48.7019 21.9876 48.199 22.2167 47.6717 22.3872C47.2788 22.5143 46.8794 22.622 46.4713 22.6907C46.16 22.743 45.8486 22.7965 45.5355 22.8364C45.077 22.8949 44.6152 22.9092 44.1534 22.9147C43.4171 22.9238 42.6831 22.8853 41.9552 22.7718C41.1182 22.6411 40.2995 22.4423 39.5228 22.0928C38.9486 21.8345 38.4175 21.5088 37.934 21.1049C37.4456 20.6966 37.0288 20.2261 36.6867 19.6893C36.6279 19.5972 36.5667 19.5065 36.5098 19.4133C36.4786 19.3625 36.492 19.3202 36.5441 19.2919C36.5814 19.2716 36.621 19.2555 36.6596 19.2375C37.0891 19.0382 37.5191 18.8398 37.9481 18.6394C38.2066 18.5186 38.4632 18.394 38.7212 18.2725C38.9904 18.1458 39.2604 18.0208 39.5299 17.8951C39.7885 17.7745 40.0469 17.6538 40.3057 17.5339C40.3657 17.5061 40.4268 17.481 40.5042 17.4474Z" fill="black"/>
<path d="M40.5042 17.4474C40.5336 17.4992 40.5522 17.5292 40.5683 17.5606C40.691 17.7984 40.8184 18.0343 40.9963 18.2359C41.2427 18.5154 41.5218 18.7522 41.858 18.9249C42.3251 19.1648 42.8211 19.288 43.3372 19.3542C43.9821 19.4368 44.6232 19.4039 45.2602 19.2907C45.5664 19.2363 45.8534 19.1269 46.1179 18.9513C46.4217 18.7494 46.606 18.321 46.5334 17.9478C46.5123 17.8391 46.4567 17.742 46.3857 17.6584C46.2992 17.5567 46.1996 17.4681 46.0862 17.395C45.6789 17.1322 45.2296 16.9658 44.7716 16.8195C44.3197 16.6751 43.8596 16.5636 43.3961 16.4631C42.7849 16.3306 42.1756 16.1882 41.5738 16.0171C41.0002 15.854 40.4405 15.6528 39.8998 15.4002C39.7182 15.3153 39.5351 15.234 39.3552 15.1456C39.0709 15.0058 38.8014 14.8376 38.5564 14.6396C38.1961 14.3485 37.8718 14.0185 37.6504 13.6038C37.4277 13.1868 37.2933 12.7411 37.2376 12.2717C37.1629 11.6401 37.2327 11.0217 37.4248 10.4183C37.5492 10.0275 37.7447 9.6721 37.9945 9.34529C38.1428 9.15134 38.3155 8.98099 38.4799 8.80247C38.6252 8.64477 38.7993 8.52178 38.9752 8.40282C39.4901 8.05458 40.0362 7.76599 40.6195 7.54755C40.7966 7.48117 40.9756 7.42636 41.1582 7.38016C41.3936 7.32059 41.6274 7.25376 41.8641 7.20056C42.3513 7.09112 42.8471 7.04259 43.3446 7.01083C43.8484 6.97871 44.3522 6.9797 44.8562 7.01056C45.47 7.04815 46.0749 7.13382 46.6707 7.29377C47.1007 7.40931 47.5163 7.55697 47.9169 7.74975C48.1029 7.83928 48.2938 7.91813 48.4796 8.00793C49.0924 8.30432 49.631 8.70828 50.1207 9.17583C50.3176 9.36386 50.4856 9.58203 50.6653 9.78773C50.7212 9.85169 50.7727 9.91942 50.8255 9.98616C50.8517 10.0194 50.8794 10.0522 50.9005 10.0887C50.9504 10.1753 50.9325 10.2162 50.8417 10.2568C50.5316 10.3958 50.2225 10.5371 49.9129 10.6773C49.4928 10.8675 49.0721 11.0565 48.6525 11.2478C48.4485 11.3407 48.2471 11.4395 48.0431 11.5323C47.8333 11.6277 47.6217 11.719 47.411 11.8124C47.3004 11.8614 47.1917 11.9153 47.0791 11.9592C46.9885 11.9945 46.9707 11.984 46.9144 11.9021C46.8971 11.8771 46.8795 11.8522 46.865 11.8256C46.6983 11.5207 46.4544 11.2879 46.1805 11.081C45.8042 10.7969 45.3799 10.6198 44.9192 10.5433C44.3893 10.4553 43.8561 10.4449 43.3239 10.5471C43.0146 10.6065 42.7339 10.7318 42.4706 10.8973C42.2291 11.049 42.0745 11.2667 42.0075 11.547C41.9869 11.6327 41.9838 11.7143 42.0096 11.7974C42.0764 12.0124 42.1892 12.1979 42.3802 12.3224C42.5375 12.425 42.6998 12.5214 42.8662 12.6083C43.3484 12.8602 43.8678 13.0092 44.3901 13.1508C44.977 13.3098 45.5774 13.4065 46.1688 13.5447C46.7608 13.6829 47.3464 13.8436 47.9171 14.0541C48.3447 14.2119 48.7598 14.3991 49.154 14.6297C49.3111 14.7217 49.4713 14.8086 49.6261 14.9042C50.1546 15.2304 50.5622 15.6734 50.8644 16.2132C51.0588 16.5605 51.1846 16.9338 51.2548 17.3257C51.3205 17.6924 51.3395 18.0627 51.313 18.4333C51.2543 19.2548 50.9884 19.9981 50.4628 20.6421C50.1042 21.0815 49.667 21.4239 49.1808 21.7079C48.7019 21.9876 48.199 22.2167 47.6717 22.3872C47.2788 22.5143 46.8794 22.622 46.4713 22.6907C46.16 22.743 45.8486 22.7965 45.5355 22.8364C45.077 22.8949 44.6152 22.9092 44.1534 22.9147C43.4171 22.9238 42.6831 22.8853 41.9552 22.7718C41.1182 22.6411 40.2995 22.4423 39.5228 22.0928C38.9486 21.8345 38.4175 21.5088 37.934 21.1049C37.4456 20.6966 37.0288 20.2261 36.6867 19.6893C36.6279 19.5972 36.5667 19.5065 36.5098 19.4133C36.4786 19.3625 36.492 19.3202 36.5441 19.2919C36.5814 19.2716 36.621 19.2555 36.6596 19.2375C37.0891 19.0382 37.5191 18.8398 37.9481 18.6394C38.2066 18.5186 38.4632 18.394 38.7212 18.2725C38.9904 18.1458 39.2604 18.0208 39.5299 17.8951C39.7885 17.7745 40.0469 17.6538 40.3057 17.5339C40.3657 17.5061 40.4268 17.481 40.5042 17.4474Z" fill="black" stroke="black" stroke-width="0.0897077" stroke-miterlimit="10"/>
<path d="M26.6571 7.42685C26.635 7.48902 26.6247 7.52876 26.6073 7.56527C26.4019 7.99847 26.1909 8.42906 25.9902 8.86451C25.6242 9.6586 25.263 10.4549 24.9024 11.2515C24.7245 11.6443 24.5545 12.0406 24.3768 12.4335C24.2967 12.6103 24.2036 12.7813 24.1219 12.9574C23.9455 13.3375 23.7728 13.7192 23.5984 14.1002C23.4468 14.4314 23.2937 14.762 23.1434 15.0937C22.9152 15.5971 22.6906 16.102 22.4616 16.6049C22.0689 17.4671 21.6735 18.3281 21.2802 19.19C21.0256 19.7481 20.772 20.3066 20.5192 20.8656C20.304 21.3414 20.0899 21.8178 19.8769 22.2946C19.794 22.4808 19.7959 22.482 19.5971 22.4821C17.9446 22.4829 16.2922 22.4837 14.6398 22.4844C14.4419 22.4845 14.434 22.4771 14.3646 22.2914C14.3264 22.1892 14.2839 22.0884 14.2388 21.9889C13.9757 21.4082 13.7121 20.8276 13.4469 20.2477C13.2903 19.9055 13.1284 19.5655 12.9722 19.2231C12.6043 18.4165 12.239 17.6086 11.8715 16.8018C11.567 16.1333 11.2602 15.4658 10.9551 14.7976C10.6475 14.1237 10.3407 13.4495 10.0334 12.7754C9.8295 12.3279 9.62703 11.8799 9.42124 11.4333C9.23833 11.0361 9.04851 10.6422 8.86784 10.2441C8.63944 9.74095 8.41984 9.23383 8.19153 8.73066C8.01839 8.34931 7.83745 7.97138 7.66019 7.59191C7.6374 7.54311 7.60493 7.49575 7.6357 7.43762C7.68988 7.39859 7.75268 7.41196 7.81198 7.41187C8.70502 7.41008 9.59806 7.40936 10.4911 7.40855C11.1169 7.40801 11.7426 7.40738 12.3683 7.40765C12.4533 7.40774 12.5384 7.41043 12.6232 7.41618C12.7104 7.42219 12.765 7.46928 12.7977 7.55262C12.8979 7.80685 13.0019 8.05947 13.1058 8.31218C13.256 8.67729 13.407 9.04213 13.5585 9.4067C13.5794 9.45694 13.6055 9.50511 13.6292 9.55418C13.6502 9.59787 13.6745 9.64039 13.692 9.68542C13.7845 9.92288 13.871 10.1628 13.9679 10.3984C14.1226 10.7747 14.2844 11.1481 14.4422 11.5231C14.5104 11.6855 14.5771 11.8485 14.6432 12.0117C14.8165 12.4393 14.9873 12.8679 15.1627 13.2946C15.3313 13.7046 15.5051 14.1123 15.6751 14.5216C15.9826 15.2619 16.29 16.0024 16.5953 16.7434C16.7271 17.0633 16.8525 17.3857 16.9837 17.7058C17.0107 17.7714 17.0265 17.8465 17.0922 17.8896C17.1549 17.8796 17.1622 17.8262 17.18 17.7836C17.29 17.5202 17.398 17.2559 17.5081 16.9926C17.7684 16.3707 18.0295 15.7492 18.2904 15.1277C18.603 14.383 18.9173 13.6389 19.2277 12.8932C19.3888 12.5064 19.541 12.1159 19.7008 11.7285C19.8142 11.4535 19.9353 11.1816 20.0501 10.9071C20.1554 10.6549 20.2549 10.4003 20.3603 10.148C20.5078 9.79504 20.6592 9.44366 20.8075 9.09093C21.0194 8.58704 21.2299 8.08261 21.4411 7.57828C21.4458 7.56706 21.4515 7.55612 21.4548 7.54455C21.4844 7.44085 21.5529 7.40478 21.6597 7.40532C22.1274 7.40747 22.5953 7.40209 23.0631 7.40245C24.1383 7.40317 25.2136 7.40577 26.289 7.4073C26.3618 7.40738 26.4347 7.40245 26.5076 7.40451C26.5487 7.40568 26.5895 7.41635 26.6571 7.42685Z" fill="black"/>
<path d="M26.6571 7.42685C26.635 7.48902 26.6247 7.52876 26.6073 7.56527C26.4019 7.99847 26.1909 8.42906 25.9902 8.86451C25.6242 9.6586 25.263 10.4549 24.9024 11.2515C24.7245 11.6443 24.5545 12.0406 24.3768 12.4335C24.2967 12.6103 24.2036 12.7813 24.1219 12.9574C23.9455 13.3375 23.7728 13.7192 23.5984 14.1002C23.4468 14.4314 23.2937 14.762 23.1434 15.0937C22.9152 15.5971 22.6906 16.102 22.4616 16.6049C22.0689 17.4671 21.6735 18.3281 21.2802 19.19C21.0256 19.7481 20.772 20.3066 20.5192 20.8656C20.304 21.3414 20.0899 21.8178 19.8769 22.2946C19.794 22.4808 19.7959 22.482 19.5971 22.4821C17.9446 22.4829 16.2922 22.4837 14.6398 22.4844C14.4419 22.4845 14.434 22.4771 14.3646 22.2914C14.3264 22.1892 14.2839 22.0884 14.2388 21.9889C13.9757 21.4082 13.7121 20.8276 13.4469 20.2477C13.2903 19.9055 13.1284 19.5655 12.9722 19.2231C12.6043 18.4165 12.239 17.6086 11.8715 16.8018C11.567 16.1333 11.2602 15.4658 10.9551 14.7976C10.6475 14.1237 10.3407 13.4495 10.0334 12.7754C9.8295 12.3279 9.62703 11.8799 9.42124 11.4333C9.23833 11.0361 9.04851 10.6422 8.86784 10.2441C8.63944 9.74095 8.41984 9.23383 8.19153 8.73066C8.01839 8.34931 7.83745 7.97138 7.66019 7.59191C7.6374 7.54311 7.60493 7.49575 7.6357 7.43762C7.68988 7.39859 7.75268 7.41196 7.81198 7.41187C8.70502 7.41008 9.59806 7.40936 10.4911 7.40855C11.1169 7.40801 11.7426 7.40738 12.3683 7.40765C12.4533 7.40774 12.5384 7.41043 12.6232 7.41618C12.7104 7.42219 12.765 7.46928 12.7977 7.55262C12.8979 7.80685 13.0019 8.05947 13.1058 8.31218C13.256 8.67729 13.407 9.04213 13.5585 9.4067C13.5794 9.45694 13.6055 9.50511 13.6292 9.55418C13.6502 9.59787 13.6745 9.64039 13.692 9.68542C13.7845 9.92288 13.871 10.1628 13.9679 10.3984C14.1226 10.7747 14.2844 11.1481 14.4422 11.5231C14.5104 11.6855 14.5771 11.8485 14.6432 12.0117C14.8165 12.4393 14.9873 12.8679 15.1627 13.2946C15.3313 13.7046 15.5051 14.1123 15.6751 14.5216C15.9826 15.2619 16.29 16.0024 16.5953 16.7434C16.7271 17.0633 16.8525 17.3857 16.9837 17.7058C17.0107 17.7714 17.0265 17.8465 17.0922 17.8896C17.1549 17.8796 17.1622 17.8262 17.18 17.7836C17.29 17.5202 17.398 17.2559 17.5081 16.9926C17.7684 16.3707 18.0295 15.7492 18.2904 15.1277C18.603 14.383 18.9173 13.6389 19.2277 12.8932C19.3888 12.5064 19.541 12.1159 19.7008 11.7285C19.8142 11.4535 19.9353 11.1816 20.0501 10.9071C20.1554 10.6549 20.2549 10.4003 20.3603 10.148C20.5078 9.79504 20.6592 9.44366 20.8075 9.09093C21.0194 8.58704 21.2299 8.08261 21.4411 7.57828C21.4458 7.56706 21.4515 7.55612 21.4548 7.54455C21.4844 7.44085 21.5529 7.40478 21.6597 7.40532C22.1274 7.40747 22.5953 7.40209 23.0631 7.40245C24.1383 7.40317 25.2136 7.40577 26.289 7.4073C26.3618 7.40738 26.4347 7.40245 26.5076 7.40451C26.5487 7.40568 26.5895 7.41635 26.6571 7.42685Z" fill="black" stroke="black" stroke-width="0.0897077" stroke-miterlimit="10"/>
<path d="M28.9373 7.41689C28.9858 7.41348 29.0393 7.40783 29.093 7.4063C30.1191 7.3776 31.1455 7.3802 32.1719 7.38881C32.5544 7.39195 32.937 7.39993 33.3196 7.40594C33.3683 7.40675 33.4169 7.40756 33.4653 7.41124C33.5551 7.41815 33.5786 7.44272 33.5841 7.53728C33.587 7.58572 33.5848 7.63443 33.5848 7.68305C33.5853 8.19941 33.5862 8.71577 33.5857 9.23203C33.5855 9.43253 33.5809 9.63303 33.5805 9.83352C33.579 10.6052 33.5792 11.3768 33.5775 12.1484C33.5725 14.2505 33.5663 16.3526 33.5622 18.4547C33.5601 19.5605 33.5611 20.6664 33.5617 21.7722C33.5618 21.9362 33.5676 22.1002 33.569 22.2641C33.5696 22.324 33.5647 22.3839 33.5622 22.4496C33.5186 22.4607 33.4851 22.4755 33.4511 22.4767C33.3358 22.4808 33.2203 22.4809 33.105 22.481C31.8171 22.4818 30.5294 22.4826 29.2415 22.4824C29.1388 22.4824 29.0361 22.4752 28.9269 22.4711C28.9151 22.4306 28.8986 22.3977 28.8971 22.3641C28.8919 22.2488 28.8902 22.1333 28.8902 22.0179C28.8904 19.302 28.8908 16.586 28.8913 13.8702C28.8914 13.5117 28.8932 13.1532 28.8919 12.7948C28.8875 11.5129 28.8809 10.2311 28.878 8.94928C28.8772 8.5908 28.8868 8.23242 28.8913 7.87404C28.8925 7.77689 28.8916 7.67973 28.8937 7.58258C28.8945 7.54652 28.8989 7.51019 28.9058 7.47484C28.9092 7.45807 28.9224 7.44335 28.9373 7.41689Z" fill="black"/>
<path d="M28.9373 7.41689C28.9858 7.41348 29.0393 7.40783 29.093 7.4063C30.1191 7.3776 31.1455 7.3802 32.1719 7.38881C32.5544 7.39195 32.937 7.39993 33.3196 7.40594C33.3683 7.40675 33.4169 7.40756 33.4653 7.41124C33.5551 7.41815 33.5786 7.44272 33.5841 7.53728C33.587 7.58572 33.5848 7.63443 33.5848 7.68305C33.5853 8.19941 33.5862 8.71577 33.5857 9.23203C33.5855 9.43253 33.5809 9.63303 33.5805 9.83352C33.579 10.6052 33.5792 11.3768 33.5775 12.1484C33.5725 14.2505 33.5663 16.3526 33.5622 18.4547C33.5601 19.5605 33.5611 20.6664 33.5617 21.7722C33.5618 21.9362 33.5676 22.1002 33.569 22.2641C33.5696 22.324 33.5647 22.3839 33.5622 22.4496C33.5186 22.4607 33.4851 22.4755 33.4511 22.4767C33.3358 22.4808 33.2203 22.4809 33.105 22.481C31.8171 22.4818 30.5294 22.4826 29.2415 22.4824C29.1388 22.4824 29.0361 22.4752 28.9269 22.4711C28.9151 22.4306 28.8986 22.3977 28.8971 22.3641C28.8919 22.2488 28.8902 22.1333 28.8902 22.0179C28.8904 19.302 28.8908 16.586 28.8913 13.8702C28.8914 13.5117 28.8932 13.1532 28.8919 12.7948C28.8875 11.5129 28.8809 10.2311 28.878 8.94928C28.8772 8.5908 28.8868 8.23242 28.8913 7.87404C28.8925 7.77689 28.8916 7.67973 28.8937 7.58258C28.8945 7.54652 28.8989 7.51019 28.9058 7.47484C28.9092 7.45807 28.9224 7.44335 28.9373 7.41689Z" fill="black" stroke="black" stroke-width="0.0897077" stroke-miterlimit="10"/>
<path d="M54.3348 7.43055C54.3882 7.42247 54.4345 7.40956 54.4809 7.40929C55.07 7.40687 55.6592 7.40561 56.2484 7.40543C56.5338 7.40534 56.8193 7.40974 57.1047 7.40947C57.6575 7.40884 58.2102 7.40633 58.7629 7.40462C58.8054 7.40453 58.8481 7.40265 58.8903 7.40579C58.969 7.41162 58.9933 7.43916 58.998 7.52277C58.9994 7.5469 58.9976 7.5713 58.9976 7.59561C58.9986 8.98689 59.0015 10.3782 59.0002 11.7694C58.9982 13.9686 58.9929 16.1679 58.9901 18.3672C58.9885 19.643 58.9893 20.9188 58.9883 22.1947C58.9882 22.2786 58.9984 22.364 58.9726 22.4455C58.9146 22.4893 58.8519 22.4778 58.7932 22.4781C58.3011 22.4802 57.8092 22.4816 57.3172 22.4814C56.394 22.4811 55.4707 22.4795 54.5474 22.4785C54.4874 22.4784 54.4274 22.4769 54.3615 22.4761C54.3501 22.4325 54.335 22.399 54.3336 22.3649C54.3283 22.2374 54.3255 22.1099 54.3255 21.9823C54.3248 19.0175 54.3252 16.0526 54.3239 13.0877C54.3234 12.0367 54.3174 10.9857 54.3169 9.93465C54.3164 9.15105 54.3206 8.36736 54.3236 7.58368C54.3237 7.53631 54.3303 7.48904 54.3348 7.43055Z" fill="black"/>
<path d="M54.3348 7.43055C54.3882 7.42247 54.4345 7.40956 54.4809 7.40929C55.07 7.40687 55.6592 7.40561 56.2484 7.40543C56.5338 7.40534 56.8193 7.40974 57.1047 7.40947C57.6575 7.40884 58.2102 7.40633 58.7629 7.40462C58.8054 7.40453 58.8481 7.40265 58.8903 7.40579C58.969 7.41162 58.9933 7.43916 58.998 7.52277C58.9994 7.5469 58.9976 7.5713 58.9976 7.59561C58.9986 8.98689 59.0015 10.3782 59.0002 11.7694C58.9982 13.9686 58.9929 16.1679 58.9901 18.3672C58.9885 19.643 58.9893 20.9188 58.9883 22.1947C58.9882 22.2786 58.9984 22.364 58.9726 22.4455C58.9146 22.4893 58.8519 22.4778 58.7932 22.4781C58.3011 22.4802 57.8092 22.4816 57.3172 22.4814C56.394 22.4811 55.4707 22.4795 54.5474 22.4785C54.4874 22.4784 54.4274 22.4769 54.3615 22.4761C54.3501 22.4325 54.335 22.399 54.3336 22.3649C54.3283 22.2374 54.3255 22.1099 54.3255 21.9823C54.3248 19.0175 54.3252 16.0526 54.3239 13.0877C54.3234 12.0367 54.3174 10.9857 54.3169 9.93465C54.3164 9.15105 54.3206 8.36736 54.3236 7.58368C54.3237 7.53631 54.3303 7.48904 54.3348 7.43055Z" fill="black" stroke="black" stroke-width="0.0897077" stroke-miterlimit="10"/>
<path d="M31.3353 5.63309C30.82 5.619 30.404 5.57101 30.0101 5.41474C29.6933 5.28915 29.3979 5.12346 29.1393 4.89533C28.9879 4.76176 28.8557 4.61222 28.736 4.45191C28.5481 4.20019 28.4316 3.91563 28.3711 3.6074C28.3175 3.33514 28.3283 3.06323 28.3767 2.79267C28.421 2.54454 28.5254 2.31812 28.6566 2.10515C28.817 1.84455 29.0213 1.62477 29.2655 1.43656C29.5237 1.23768 29.8056 1.09047 30.1071 0.973223C30.3357 0.884233 30.5753 0.844223 30.8152 0.81166C31.4125 0.730833 31.9889 0.820003 32.5426 1.05396C32.7906 1.15874 33.0071 1.31671 33.2172 1.48151C33.443 1.65832 33.6398 1.86402 33.7929 2.10874C33.9932 2.429 34.1177 2.77366 34.1167 3.15491C34.1162 3.30607 34.1111 3.45956 34.0848 3.60785C34.0243 3.94936 33.8637 4.24827 33.6539 4.52071C33.3502 4.91489 32.9575 5.19424 32.5025 5.38612C32.3296 5.45906 32.1502 5.51862 31.9632 5.54796C31.7237 5.58572 31.486 5.64062 31.3353 5.63309Z" fill="black"/>
<path d="M31.3353 5.63309C30.82 5.619 30.404 5.57101 30.0101 5.41474C29.6933 5.28915 29.3979 5.12346 29.1393 4.89533C28.9879 4.76176 28.8557 4.61222 28.736 4.45191C28.5481 4.20019 28.4316 3.91563 28.3711 3.6074C28.3175 3.33514 28.3283 3.06323 28.3767 2.79267C28.421 2.54454 28.5254 2.31812 28.6566 2.10515C28.817 1.84455 29.0213 1.62477 29.2655 1.43656C29.5237 1.23768 29.8056 1.09047 30.1071 0.973223C30.3357 0.884233 30.5753 0.844223 30.8152 0.81166C31.4125 0.730833 31.9889 0.820003 32.5426 1.05396C32.7906 1.15874 33.0071 1.31671 33.2172 1.48151C33.443 1.65832 33.6398 1.86402 33.7929 2.10874C33.9932 2.429 34.1177 2.77366 34.1167 3.15491C34.1162 3.30607 34.1111 3.45956 34.0848 3.60785C34.0243 3.94936 33.8637 4.24827 33.6539 4.52071C33.3502 4.91489 32.9575 5.19424 32.5025 5.38612C32.3296 5.45906 32.1502 5.51862 31.9632 5.54796C31.7237 5.58572 31.486 5.64062 31.3353 5.63309Z" fill="black" stroke="black" stroke-width="0.0897077" stroke-miterlimit="10"/>
<path d="M56.6253 0.805237C56.9324 0.791243 57.2323 0.842556 57.5274 0.913066C57.7759 0.972363 58.0112 1.07741 58.2286 1.21152C58.5291 1.39686 58.8134 1.60678 59.0345 1.88612C59.3988 2.34615 59.6052 2.86241 59.5175 3.45816C59.4448 3.95209 59.2297 4.38125 58.8666 4.73174C58.5796 5.00876 58.2576 5.23285 57.8869 5.38123C57.7125 5.45093 57.534 5.50879 57.3463 5.53857C56.8681 5.61447 56.3921 5.62227 55.9158 5.52449C55.4124 5.42115 54.9591 5.21679 54.5719 4.87384C54.4127 4.73282 54.2576 4.58875 54.1347 4.41265C53.928 4.11635 53.8282 3.78371 53.7803 3.42928C53.7304 3.06147 53.8012 2.71754 53.9583 2.38678C54.0025 2.29358 54.0442 2.19894 54.0937 2.1086C54.2002 1.91402 54.3601 1.76349 54.5185 1.61296C55.1089 1.05193 55.8274 0.824345 56.6253 0.805237Z" fill="black"/>
<path d="M56.6253 0.805237C56.9324 0.791243 57.2323 0.842556 57.5274 0.913066C57.7759 0.972363 58.0112 1.07741 58.2286 1.21152C58.5291 1.39686 58.8134 1.60678 59.0345 1.88612C59.3988 2.34615 59.6052 2.86241 59.5175 3.45816C59.4448 3.95209 59.2297 4.38125 58.8666 4.73174C58.5796 5.00876 58.2576 5.23285 57.8869 5.38123C57.7125 5.45093 57.534 5.50879 57.3463 5.53857C56.8681 5.61447 56.3921 5.62227 55.9158 5.52449C55.4124 5.42115 54.9591 5.21679 54.5719 4.87384C54.4127 4.73282 54.2576 4.58875 54.1347 4.41265C53.928 4.11635 53.8282 3.78371 53.7803 3.42928C53.7304 3.06147 53.8012 2.71754 53.9583 2.38678C54.0025 2.29358 54.0442 2.19894 54.0937 2.1086C54.2002 1.91402 54.3601 1.76349 54.5185 1.61296C55.1089 1.05193 55.8274 0.824345 56.6253 0.805237Z" fill="black" stroke="black" stroke-width="0.0897077" stroke-miterlimit="10"/>
<path d="M53.3451 5.6084C53.3425 5.60095 53.3399 5.5935 53.3373 5.58605C53.3423 5.58543 53.3473 5.5849 53.3523 5.58436" fill="black"/>
<path d="M53.3451 5.6084C53.3425 5.60095 53.3399 5.5935 53.3373 5.58605C53.3423 5.58543 53.3473 5.5849 53.3523 5.58436" stroke="black" stroke-width="0.0897077" stroke-miterlimit="10"/>
<path d="M53.9476 8.17811L53.955 8.1666L53.9594 8.17969L53.9476 8.17811Z" fill="black"/>
<path d="M53.9476 8.17811L53.955 8.1666L53.9594 8.17969L53.9476 8.17811Z" fill="black" stroke="black" stroke-width="0.0897077" stroke-miterlimit="10"/>
</g>
<defs>
<clipPath id="clip0_35_586">
<rect width="122" height="23" fill="white" transform="translate(0.285767 0.354492)"/>
</clipPath>
</defs>
</svg>
