<svg width="71" height="75" viewBox="0 0 71 75" fill="none" xmlns="http://www.w3.org/2000/svg">
<path d="M10.0484 56.6846C5.28522 50.9353 2.43848 43.5672 2.43848 35.5294C2.43848 17.2023 17.3048 2.33594 35.6319 2.33594C53.959 2.33594 68.8253 17.2023 68.8253 35.5294C68.8253 53.8565 53.959 68.7228 35.6319 68.7228C31.2222 68.7228 27.0172 67.8669 23.1658 66.304L7.12724 72.9464M10.0298 56.666L7.10863 72.9464M25.7706 15.6394C25.1752 15.6394 24.5984 15.6394 24.003 15.6394C23.817 15.6394 23.6495 15.6766 23.4821 15.7882C22.0308 16.8116 20.8772 18.0954 20.133 19.7141C19.184 21.7236 18.9794 23.8447 19.2213 26.0216C19.3329 26.9891 19.4445 27.9753 19.8725 28.8684C22.6262 34.7665 26.2916 39.9949 31.2222 44.2929C35.0923 47.6792 39.409 50.2841 44.2838 51.9214C45.2513 52.2377 46.2188 52.6471 47.2794 52.6099C48.4516 52.5726 49.6052 52.4796 50.7401 52.2191C52.3589 51.8656 53.8846 51.2888 55.1498 50.191C57.1221 48.4793 57.8477 46.2651 57.7361 43.7161C57.7175 43.2509 57.5314 43.0277 57.1407 42.8044C54.7777 41.5578 52.4333 40.2739 50.0703 38.9901C49.6982 38.7855 49.3075 38.618 48.8795 38.525C48.2655 38.3947 47.7259 38.5808 47.4654 39.0273C47.3166 39.2692 47.1305 39.4739 46.9445 39.6972C45.8653 40.888 44.8048 42.0974 43.7256 43.2882C43.5768 43.4742 43.4465 43.5114 43.2046 43.437C39.4648 42.1532 36.0971 40.2553 33.3434 37.3714C31.5199 35.4736 30.1617 33.278 29.2872 30.7848C29.0825 30.208 29.0825 29.7801 29.6221 29.4079C29.9384 29.1847 30.1617 28.8498 30.4594 28.5893C31.1664 27.9939 31.5758 27.1938 31.9107 26.3565C32.2642 25.5006 32.3386 24.7006 31.8735 23.7889C30.5524 21.2212 29.343 18.5977 28.0964 15.9929C27.9476 15.6766 27.7801 15.6021 27.4638 15.6021C26.887 15.658 26.3288 15.6394 25.7706 15.6394Z" stroke="black" stroke-opacity="0.5" stroke-width="3" stroke-miterlimit="10" stroke-linecap="round"/>
</svg>
