<svg width="42" height="41" viewBox="0 0 42 41" fill="none" xmlns="http://www.w3.org/2000/svg">
<path d="M20.4488 39.7188C9.86183 39.7188 1.56702 31.2766 1.56702 20.5C1.56702 15.8503 3.15192 11.389 6.03217 7.93863C6.26024 7.667 6.66255 7.63241 6.93417 7.85791C7.2058 8.08469 7.24295 8.48828 7.01617 8.75991C4.32811 11.9797 2.84827 16.1489 2.84827 20.5C2.84827 30.5591 10.5793 38.4375 20.4488 38.4375C30.5258 38.4375 38.7233 30.3913 38.7233 20.5C38.7233 10.6088 30.5258 2.5625 20.4488 2.5625C17.3225 2.5625 14.2821 3.35687 11.662 4.8585C11.3583 5.02891 10.9637 4.92769 10.7882 4.62019C10.6126 4.31269 10.719 3.92191 11.0265 3.74509C13.8401 2.13328 17.0983 1.28125 20.4488 1.28125C31.2318 1.28125 40.0045 9.90278 40.0045 20.5C40.0045 31.0972 31.2318 39.7188 20.4488 39.7188Z" fill="#263238"/>
<path d="M9.9502 5.83203C9.9502 6.18437 9.66191 6.47266 9.30957 6.47266C8.95723 6.47266 8.66895 6.18437 8.66895 5.83203C8.66895 5.47969 8.95723 5.19141 9.30957 5.19141C9.66191 5.19141 9.9502 5.47841 9.9502 5.83203Z" fill="#263238"/>
<path d="M25.3343 30.7726C25.1921 30.7726 25.0473 30.7252 24.9294 30.6279L17.5456 24.5791C17.4008 24.4612 17.315 24.2857 17.3098 24.0986C17.306 23.9115 17.3829 23.7335 17.5212 23.6079L23.0011 18.6623C23.2638 18.4227 23.6687 18.4457 23.9057 18.7084C24.144 18.971 24.1222 19.3759 23.8596 19.613L18.9319 24.0589L25.7392 29.6362C26.0134 29.8604 26.0531 30.264 25.8289 30.5382C25.7033 30.6919 25.5188 30.7726 25.3343 30.7726Z" fill="#263238"/>
<path d="M26.112 31.0109C25.7724 31.0109 25.4073 30.9046 25.0242 30.6932L20.814 27.3094L18.6564 29.2992C18.3566 29.5926 17.9901 29.9487 17.2611 29.9487C16.3642 29.9487 16.1554 29.476 16.0183 28.9904C15.9939 28.9071 15.967 28.8097 15.9273 28.6982L14.3821 23.613L9.95412 22.2318C8.91118 21.9115 8.77153 21.2721 8.76 21.0133C8.74206 20.5828 8.96628 19.9691 10.1361 19.5002L29.1601 12.1599C29.7046 11.9472 30.3439 12.1189 30.7129 12.5737C30.973 12.8927 31.073 13.3079 30.9884 13.7127L27.702 29.4401C27.4073 30.8572 26.4912 31.0109 26.112 31.0109ZM20.7858 25.8231C20.928 25.8231 21.0702 25.8705 21.1868 25.9653L25.7353 29.6323C26.3234 29.9129 26.3759 29.5234 26.4489 29.1787L29.7353 13.4527L29.6546 13.3489L10.6076 20.693C10.3833 20.7827 10.236 20.8711 10.1463 20.9364C10.1937 20.9595 10.2565 20.9838 10.3347 21.0082L15.0894 22.4919C15.2905 22.5559 15.4494 22.7148 15.5109 22.9172L17.1432 28.2934C17.1855 28.4061 17.2214 28.5342 17.2521 28.6419C17.2547 28.6496 17.2572 28.6585 17.2585 28.6662C17.4289 28.6649 17.5186 28.6188 17.7557 28.3869L20.3515 25.991C20.4745 25.8808 20.6295 25.8231 20.7858 25.8231Z" fill="#263238"/>
<path d="M25.9658 17.3633C25.9658 17.7156 25.6775 18.0039 25.3252 18.0039C24.9729 18.0039 24.6846 17.7156 24.6846 17.3633C24.6846 17.0109 24.9729 16.7227 25.3252 16.7227C25.6775 16.7227 25.9658 17.0097 25.9658 17.3633Z" fill="#263238"/>
</svg>
